SplineFontDB: 3.2
FontName: DeltaHeyMaxNine-Regular
FullName: DeltaHeyMaxNine-Regular
FamilyName: Delta Hey Max Nine
Weight: Normal
Copyright: This font has been released under a no rights reserved Creative Commons Zero license.  Please do not ask permission to do anything with these fonts. Whatever you want to do with this font, the answer will be yes. Please read about the CC0 Public Domain license before contacting me. https://creativecommons.org/publicdomain/zero/1.0/ To the extent possible under law, Raymond Larabie has waived all copyright and related or neighboring rights to this font. This work is published from Japan.
Version: 001.001
ItalicAngle: 0
UnderlinePosition: -143
UnderlineWidth: 20
Ascent: 668
Descent: 332
InvalidEm: 0
sfntRevision: 0x00030042
LayerCount: 2
Layer: 0 0 "Warstwa t+AUIA-a" 1
Layer: 1 0 "Plan pierwszy" 0
XUID: [1021 438 1498716557 8576]
StyleMap: 0x0040
FSType: 4
OS2Version: 3
OS2_WeightWidthSlopeOnly: 0
OS2_UseTypoMetrics: 0
CreationTime: 1331843646
ModificationTime: 1715231948
PfmFamily: 17
TTFWeight: 400
TTFWidth: 5
LineGap: 0
VLineGap: 0
Panose: 2 0 4 0 0 0 0 0 0 0
OS2TypoAscent: 668
OS2TypoAOffset: 0
OS2TypoDescent: -332
OS2TypoDOffset: 0
OS2TypoLinegap: 200
OS2WinAscent: 868
OS2WinAOffset: 0
OS2WinDescent: 332
OS2WinDOffset: 0
HheadAscent: 868
HheadAOffset: 0
HheadDescent: -332
HheadDOffset: 0
OS2SubXSize: 300
OS2SubYSize: 300
OS2SubXOff: 0
OS2SubYOff: 0
OS2SupXSize: 300
OS2SupYSize: 300
OS2SupXOff: 0
OS2SupYOff: 300
OS2StrikeYSize: 50
OS2StrikeYPos: 250
OS2CapHeight: 666
OS2XHeight: 334
OS2Vendor: 'TYPO'
OS2CodePages: 20000001.00000000
OS2UnicodeRanges: 80000027.00000008.00000000.00000000
Lookup: 4 0 0 "'frac' U+AUIA-amki uko+AVsA-ne w +AUIA-aci+AUQA-skie w tablicy 0" { "Podtablica 'frac' U+AUIA-amki uko+AVsA-ne w +AUIA-aci+AUQA-skie w tablicy 0"  } ['frac' ('DFLT' <'dflt' > 'latn' <'dflt' > ) ]

StartChar: .notdef
Encoding: 65536 -1 0
Width: 452
Flags: W
LayerCount: 2
Fore
SplineSet
322 0 m 2
 129 0 l 2
 66 0 32 28 32 84 c 2
 32 572 l 2
 32 628 66 657 129 657 c 2
 322 657 l 2
 386 657 420 628 420 572 c 2
 420 84 l 2
 420 28 386 0 322 0 c 2
368 84 m 2
 368 572 l 2
 368 598 353 611 322 611 c 2
 129 611 l 2
 99 611 83 598 83 572 c 2
 83 84 l 2
 83 59 99 45 129 45 c 2
 322 45 l 2
 353 45 368 59 368 84 c 2
EndSplineSet
EndChar

StartChar: exclam
Encoding: 33 33 2
Width: 313
Flags: W
LayerCount: 2
Fore
SplineSet
290 585 m 0
 290 534 272 470 235 392 c 0
 192 301 168 237 161 202 c 1
 123 311 104 410 104 498 c 0
 104 608 142 663 219 663 c 0
 259 663 290 626 290 585 c 0
175 134 m 0
 227 134 253 115 253 77 c 0
 253 23 194 -16 141 -16 c 0
 102 -16 73 12 73 49 c 0
 73 101 120 134 175 134 c 0
EndSplineSet
EndChar

StartChar: quotedbl
Encoding: 34 34 3
Width: 483
Flags: W
LayerCount: 2
Fore
SplineSet
448 591 m 0
 448 522 421 445 366 359 c 1
 366 406 312 552 312 597 c 0
 312 641 332 663 373 663 c 0
 414 663 448 631 448 591 c 0
270 575 m 0
 270 522 233 429 190 372 c 1
 188 381 128 516 128 575 c 0
 128 634 151 663 196 663 c 0
 243 663 270 623 270 575 c 0
EndSplineSet
EndChar

StartChar: numbersign
Encoding: 35 35 4
Width: 634
Flags: W
LayerCount: 2
Fore
SplineSet
596 118 m 1
 583 121 507 168 471 168 c 0
 446 168 434 151 434 116 c 0
 434 85 449 57 480 34 c 1
 459 34 l 2
 397 34 359 27 346 14 c 1
 357 43 363 70 363 95 c 0
 363 141 338 182 304 182 c 0
 281 182 270 168 270 139 c 0
 270 113 303 51 304 40 c 1
 190 40 l 1
 217 73 231 111 231 153 c 0
 231 200 208 224 162 224 c 0
 149 224 136 216 123 201 c 2
 94 162 l 1
 102 181 106 204 106 230 c 0
 106 254 102 281 94 312 c 1
 121 281 149 265 178 265 c 0
 201 265 227 279 227 300 c 0
 227 326 200 339 147 339 c 0
 131 339 114 338 95 336 c 1
 100 348 103 363 103 380 c 0
 103 399 100 420 94 441 c 1
 133 414 164 400 186 400 c 0
 205 400 215 410 215 431 c 0
 215 475 172 544 128 554 c 1
 143 560 254 575 290 596 c 1
 269 569 259 541 259 510 c 0
 259 475 279 436 309 436 c 0
 347 436 366 485 366 582 c 1
 388 582 458 588 480 588 c 1
 437 551 415 511 415 468 c 0
 415 432 436 402 469 402 c 0
 498 402 531 421 566 460 c 1
 558 434 554 412 554 395 c 0
 554 381 557 366 563 346 c 2
 576 298 l 1
 563 313 545 321 522 321 c 0
 483 321 446 297 446 260 c 0
 446 241 458 232 483 232 c 0
 512 232 563 250 576 271 c 1
 576 208 583 157 596 118 c 1
400 321 m 0
 400 355 386 372 358 372 c 0
 322 372 290 337 290 300 c 0
 290 272 321 250 349 250 c 0
 383 250 400 274 400 321 c 0
EndSplineSet
EndChar

StartChar: dollar
Encoding: 36 36 5
Width: 654
Flags: W
LayerCount: 2
Fore
SplineSet
610 221 m 0
 610 188 596 160 569 136 c 0
 555 123 455 71 455 54 c 0
 455 41 475 25 514 6 c 1
 501 8 478 9 446 9 c 0
 409 9 377 3 352 -8 c 1
 379 34 392 68 392 95 c 0
 392 112 381 121 359 121 c 0
 326 121 290 100 290 68 c 0
 290 50 301 32 324 14 c 1
 294 12 249 9 190 6 c 1
 210 29 236 55 236 80 c 0
 236 112 229 128 214 128 c 0
 203 128 132 89 122 88 c 1
 136 122 142 181 142 271 c 1
 263 218 346 191 391 191 c 0
 426 191 444 204 444 231 c 0
 444 252 415 267 357 277 c 0
 259 293 205 305 194 308 c 0
 136 325 107 354 107 395 c 0
 107 485 149 537 234 552 c 1
 233 562 224 572 207 582 c 2
 170 603 l 1
 216 603 266 612 319 629 c 1
 308 611 302 595 302 582 c 0
 302 561 312 551 333 551 c 0
 361 551 381 575 381 603 c 0
 381 615 378 628 372 642 c 1
 383 641 392 640 401 640 c 0
 414 640 441 647 480 660 c 1
 467 627 461 602 461 585 c 0
 461 567 469 558 485 558 c 0
 502 558 527 568 562 588 c 1
 562 556 576 441 576 406 c 1
 557 455 508 479 431 479 c 0
 361 479 263 445 263 402 c 0
 263 382 293 371 353 365 c 0
 561 342 610 306 610 221 c 0
EndSplineSet
EndChar

StartChar: percent
Encoding: 37 37 6
Width: 781
Flags: W
LayerCount: 2
Fore
SplineSet
758 149 m 0
 758 56 706 -8 630 -8 c 0
 533 -8 469 39 469 119 c 0
 469 205 539 284 620 284 c 0
 712 284 758 239 758 149 c 0
630 654 m 1
 552 581 494 484 460 365 c 0
 420 225 391 141 372 114 c 0
 319 39 217 -9 68 -30 c 1
 169 20 238 103 270 220 c 2
 346 497 l 1
 392 587 487 639 630 654 c 1
290 514 m 0
 290 424 241 359 162 359 c 0
 62 359 2 407 2 486 c 0
 2 567 70 651 152 651 c 0
 244 651 290 605 290 514 c 0
686 83 m 0
 686 120 630 216 591 216 c 0
 581 216 576 207 576 188 c 0
 576 141 623 65 669 65 c 0
 680 65 686 71 686 83 c 0
201 456 m 0
 201 498 148 590 114 590 c 0
 105 590 100 581 100 563 c 0
 100 511 143 441 187 441 c 0
 196 441 201 446 201 456 c 0
EndSplineSet
Ligature2: "Podtablica 'frac' U+AUIA-amki uko+AVsA-ne w +AUIA-aci+AUQA-skie w tablicy 0" zero slash zero
EndChar

StartChar: ampersand
Encoding: 38 38 7
Width: 807
Flags: W
LayerCount: 2
Fore
SplineSet
786 523 m 1
 715 523 667 504 642 460 c 1
 601 328 l 2
 584 275 547 239 499 222 c 1
 571 147 578 142 616 142 c 0
 647 142 691 161 748 199 c 1
 697 53 636 -20 567 -20 c 0
 517 -20 473 25 434 114 c 1
 340 -10 317 -23 244 -23 c 0
 146 -23 83 52 83 163 c 0
 83 272 143 375 243 407 c 1
 209 460 192 508 192 551 c 0
 192 627 250 679 326 679 c 0
 399 679 454 630 454 557 c 0
 454 505 429 464 378 435 c 1
 383 413 407 375 449 321 c 1
 492 478 565 556 668 556 c 0
 704 556 743 545 786 523 c 1
332 503 m 1
 343 546 349 573 349 585 c 0
 349 612 337 625 312 625 c 0
 297 625 289 617 289 602 c 0
 289 571 303 538 332 503 c 1
383 180 m 1
 330 248 298 298 287 331 c 1
 243 295 210 229 210 176 c 0
 210 144 226 128 259 128 c 0
 295 128 358 151 383 180 c 1
EndSplineSet
EndChar

StartChar: quotesingle
Encoding: 39 39 8
Width: 243
Flags: W
LayerCount: 2
Fore
SplineSet
148 514 m 1
 134 510 121 508 108 508 c 0
 64 508 38 542 38 586 c 0
 38 637 70 676 118 676 c 0
 192 676 229 646 229 585 c 0
 229 515 169 437 88 406 c 1
 124 442 144 478 148 514 c 1
EndSplineSet
EndChar

StartChar: parenleft
Encoding: 40 40 9
Width: 421
Flags: W
LayerCount: 2
Fore
SplineSet
400 -67 m 1
 391 -68 382 -68 373 -68 c 0
 214 -68 117 75 117 268 c 0
 117 470 222 636 372 636 c 1
 289 564 248 458 248 317 c 0
 248 161 304 15 400 -67 c 1
EndSplineSet
EndChar

StartChar: parenright
Encoding: 41 41 10
Width: 404
Flags: W
LayerCount: 2
Fore
SplineSet
112 636 m 1
 261 636 367 470 367 269 c 0
 367 70 267 -68 111 -68 c 0
 102 -68 94 -68 85 -67 c 1
 180 15 235 164 235 317 c 0
 235 458 194 564 112 636 c 1
EndSplineSet
EndChar

StartChar: asterisk
Encoding: 42 42 11
Width: 645
Flags: W
LayerCount: 2
Fore
SplineSet
622 397 m 0
 622 345 603 319 564 319 c 0
 543 319 478 334 458 334 c 0
 433 334 420 319 420 290 c 0
 420 274 434 264 463 260 c 0
 569 245 586 230 586 167 c 0
 586 135 567 102 534 102 c 0
 450 102 437 110 393 211 c 0
 382 237 364 250 338 250 c 0
 319 250 309 241 309 224 c 0
 309 208 319 171 319 156 c 0
 319 128 302 114 268 114 c 0
 212 114 156 151 156 206 c 0
 156 231 166 247 187 254 c 1
 266 261 278 262 278 290 c 0
 278 311 257 326 214 333 c 1
 122 339 l 1
 86 348 68 368 68 400 c 0
 68 459 99 488 162 488 c 0
 202 488 217 393 264 393 c 0
 297 393 314 404 314 426 c 0
 314 447 278 530 278 544 c 0
 278 588 311 629 356 629 c 0
 395 629 440 595 440 554 c 1
 440 555 382 434 382 412 c 0
 382 395 392 386 412 386 c 0
 446 386 504 481 542 481 c 0
 586 481 622 441 622 397 c 0
EndSplineSet
EndChar

StartChar: plus
Encoding: 43 43 12
Width: 388
Flags: W
LayerCount: 2
Fore
SplineSet
366 250 m 1
 331 285 300 303 275 303 c 0
 259 303 251 296 251 282 c 0
 251 259 271 233 312 202 c 1
 279 202 167 190 136 190 c 1
 171 219 188 246 188 271 c 0
 188 290 178 299 158 299 c 0
 129 299 101 275 74 227 c 1
 79 249 82 270 82 290 c 0
 82 309 79 332 74 359 c 1
 97 342 120 334 142 334 c 0
 167 334 180 343 180 361 c 0
 180 382 161 399 122 412 c 1
 123 417 258 458 278 460 c 1
 247 426 231 397 231 372 c 0
 231 352 241 342 260 342 c 0
 288 342 314 361 338 400 c 1
 357 362 366 312 366 250 c 1
EndSplineSet
EndChar

StartChar: comma
Encoding: 44 44 13
Width: 279
Flags: W
LayerCount: 2
Fore
SplineSet
244 44 m 0
 244 -28 172 -88 103 -88 c 1
 164 -43 166 -40 170 -9 c 1
 158 -14 147 -16 137 -16 c 0
 98 -16 79 5 79 48 c 0
 79 96 115 136 162 136 c 0
 209 136 244 92 244 44 c 0
EndSplineSet
EndChar

StartChar: hyphen
Encoding: 45 45 14
Width: 344
Flags: W
LayerCount: 2
Fore
SplineSet
322 265 m 1
 278 295 229 310 175 310 c 0
 141 310 109 303 78 290 c 1
 87 305 92 320 93 335 c 2
 92 386 l 1
 109 358 141 344 187 344 c 0
 225 344 268 358 315 386 c 1
 315 363 322 286 322 265 c 1
EndSplineSet
EndChar

StartChar: period
Encoding: 46 46 15
Width: 294
Flags: W
LayerCount: 2
Fore
SplineSet
258 40 m 0
 258 0 232 -20 181 -20 c 0
 129 -20 82 17 82 68 c 0
 82 108 107 128 157 128 c 0
 224 128 258 99 258 40 c 0
EndSplineSet
EndChar

StartChar: slash
Encoding: 47 47 16
Width: 551
Flags: W
LayerCount: 2
Fore
SplineSet
529 563 m 1
 460 536 398 478 343 387 c 0
 306 327 172 11 127 -27 c 1
 109 14 73 61 19 114 c 1
 183 116 368 481 372 673 c 1
 414 631 466 594 529 563 c 1
EndSplineSet
EndChar

StartChar: zero
Encoding: 48 48 17
Width: 635
Flags: W
LayerCount: 2
Fore
SplineSet
323 676 m 0
 471 676 578 481 578 288 c 0
 578 92 481 -27 304 -27 c 0
 145 -27 44 113 44 305 c 0
 44 512 160 676 323 676 c 0
419 440 m 1
 407 395 380 372 339 372 c 0
 296 372 249 406 249 448 c 0
 249 471 268 501 288 508 c 1
 292 468 l 1
 302 461 312 458 322 458 c 0
 353 458 380 493 380 532 c 0
 380 579 343 603 298 603 c 0
 232 603 192 518 192 387 c 0
 192 248 243 95 307 95 c 0
 382 95 429 183 429 333 c 0
 429 376 426 411 419 440 c 1
EndSplineSet
EndChar

StartChar: one
Encoding: 49 49 18
Width: 432
Flags: W
LayerCount: 2
Fore
SplineSet
372 -18 m 1
 317 -9 264 -4 215 -4 c 0
 163 -4 107 -9 46 -20 c 1
 145 147 194 309 194 464 c 0
 194 520 155 571 108 571 c 0
 79 571 59 552 49 514 c 1
 66 526 84 532 104 532 c 0
 129 532 142 520 142 497 c 0
 142 449 109 411 64 411 c 0
 6 411 -43 466 -43 525 c 0
 -43 569 -21 597 24 608 c 0
 31 612 79 614 170 620 c 0
 236 624 285 640 317 666 c 1
 320 643 321 621 321 600 c 0
 321 535 249 328 249 266 c 0
 249 189 290 95 372 -18 c 1
EndSplineSet
EndChar

StartChar: two
Encoding: 50 50 19
Width: 631
Flags: W
LayerCount: 2
Fore
SplineSet
608 108 m 1
 582 11 528 -38 446 -38 c 0
 402 -38 256 4 212 4 c 0
 169 4 142 -18 132 -62 c 1
 106 -7 64 25 5 33 c 1
 22 104 69 162 146 207 c 0
 156 214 221 251 342 318 c 1
 409 364 442 423 442 494 c 0
 442 555 390 607 328 607 c 0
 270 607 223 571 188 500 c 1
 205 520 224 530 245 530 c 0
 285 530 308 494 308 451 c 0
 308 387 263 333 202 333 c 0
 138 333 87 393 87 488 c 0
 87 592 211 669 354 669 c 0
 484 669 573 607 573 499 c 2
 573 485 l 2
 573 382 547 312 495 273 c 0
 480 262 432 244 349 220 c 0
 286 201 241 163 214 108 c 1
 242 129 270 139 297 139 c 0
 336 139 473 58 509 58 c 0
 542 58 575 75 608 108 c 1
EndSplineSet
EndChar

StartChar: three
Encoding: 51 51 20
Width: 651
Flags: W
LayerCount: 2
Fore
SplineSet
456 378 m 1
 464 379 471 380 478 380 c 0
 553 380 603 324 603 234 c 0
 603 87 476 -20 317 -20 c 0
 229 -20 213 2 127 92 c 0
 101 119 69 133 28 134 c 1
 79 159 137 202 202 264 c 1
 201 254 201 244 201 234 c 0
 201 138 253 53 331 53 c 0
 384 53 430 157 430 229 c 0
 430 276 415 300 386 300 c 0
 368 300 347 291 322 273 c 1
 322 309 320 365 317 440 c 1
 338 424 358 416 375 416 c 0
 406 416 422 438 422 483 c 0
 422 550 377 606 321 606 c 0
 286 606 247 587 204 549 c 1
 214 551 223 552 232 552 c 0
 271 552 290 535 290 502 c 0
 290 453 243 419 191 419 c 0
 139 419 107 453 107 504 c 0
 107 603 206 676 328 676 c 0
 446 676 543 618 543 532 c 0
 543 484 514 433 456 378 c 1
EndSplineSet
EndChar

StartChar: four
Encoding: 52 52 21
Width: 657
Flags: W
LayerCount: 2
Fore
SplineSet
593 102 m 1
 580 151 555 176 520 176 c 0
 489 176 473 155 473 112 c 0
 473 53 516 14 573 6 c 1
 518 -20 345 -22 310 -33 c 1
 355 12 378 60 378 109 c 0
 378 144 366 176 342 204 c 1
 286 224 223 234 152 234 c 0
 122 234 94 232 69 227 c 1
 169 308 219 404 219 513 c 0
 219 576 203 607 170 607 c 0
 153 607 133 597 111 576 c 1
 118 576 l 2
 153 576 170 561 170 530 c 0
 170 490 129 466 88 466 c 0
 50 466 31 487 31 528 c 0
 31 599 95 657 170 657 c 0
 270 657 332 576 332 475 c 0
 332 403 307 345 258 302 c 1
 265 303 271 303 277 303 c 0
 292 303 342 295 357 295 c 0
 386 295 401 323 401 378 c 0
 401 522 388 621 357 670 c 1
 447 621 518 596 571 596 c 2
 580 596 l 1
 526 554 480 434 480 359 c 0
 480 319 489 299 508 299 c 0
 530 299 546 318 593 378 c 1
 590 331 588 281 588 230 c 0
 588 178 590 135 593 102 c 1
EndSplineSet
EndChar

StartChar: five
Encoding: 53 53 22
Width: 642
Flags: W
LayerCount: 2
Fore
SplineSet
615 202 m 0
 615 47 543 -30 400 -30 c 0
 356 -30 312 -24 271 -8 c 0
 246 1 135 61 108 61 c 0
 79 61 48 34 16 -20 c 1
 16 14 l 2
 16 91 42 129 95 129 c 0
 149 129 313 61 367 61 c 0
 432 61 464 117 464 229 c 0
 464 335 423 405 363 405 c 0
 269 405 257 348 216 221 c 1
 184 280 119 326 50 338 c 1
 129 435 141 465 141 517 c 0
 141 548 128 599 102 670 c 1
 232 640 l 2
 283 628 326 624 363 624 c 0
 431 624 488 641 534 676 c 1
 521 637 514 601 514 569 c 0
 514 534 521 505 536 482 c 1
 481 541 355 582 254 582 c 2
 236 582 l 1
 237 571 238 559 238 546 c 0
 238 481 225 430 200 393 c 1
 260 454 324 485 391 485 c 0
 522 485 615 359 615 202 c 0
554 460 m 1
 547 467 541 474 536 482 c 1
 543 475 549 467 554 460 c 1
EndSplineSet
EndChar

StartChar: six
Encoding: 54 54 23
Width: 632
Flags: W
LayerCount: 2
Fore
SplineSet
348 -14 m 0
 185 -14 65 142 65 317 c 0
 65 476 198 670 338 670 c 0
 360 670 443 637 466 637 c 0
 495 637 511 655 515 691 c 1
 524 573 l 2
 529 529 538 491 551 460 c 1
 537 467 446 587 390 587 c 0
 293 587 230 474 220 312 c 1
 259 369 310 398 372 398 c 0
 485 398 587 295 587 181 c 0
 587 63 478 -14 348 -14 c 0
390 312 m 0
 346 312 308 269 308 225 c 0
 308 204 316 194 332 194 c 1
 323 204 319 214 319 225 c 0
 319 248 332 259 357 259 c 0
 390 259 406 246 406 219 c 0
 406 177 358 149 318 149 c 0
 272 149 239 178 219 236 c 1
 250 102 291 61 375 61 c 0
 432 61 473 126 473 197 c 0
 473 260 442 312 390 312 c 0
EndSplineSet
EndChar

StartChar: seven
Encoding: 55 55 24
Width: 613
Flags: W
LayerCount: 2
Fore
SplineSet
591 663 m 1
 591 636 l 2
 591 527 562 437 503 366 c 0
 486 346 428 296 329 216 c 0
 266 165 235 114 235 64 c 0
 235 41 240 16 250 -11 c 1
 231 -11 158 -6 139 -6 c 0
 106 -6 78 -11 55 -20 c 1
 50 3 48 26 48 48 c 0
 48 129 84 202 156 266 c 0
 157 266 224 312 357 403 c 0
 430 453 466 502 466 549 c 1
 449 541 430 537 409 537 c 0
 367 537 230 590 191 590 c 0
 154 590 131 564 122 513 c 1
 136 545 153 561 173 561 c 0
 198 561 210 542 210 503 c 0
 210 454 188 430 144 430 c 0
 92 430 55 475 55 528 c 0
 55 626 97 675 180 675 c 0
 236 675 422 632 478 632 c 0
 525 632 562 642 591 663 c 1
EndSplineSet
EndChar

StartChar: eight
Encoding: 56 56 25
Width: 610
Flags: W
LayerCount: 2
Fore
SplineSet
417 334 m 1
 508 289 553 228 553 152 c 0
 553 49 455 -20 336 -20 c 0
 180 -20 48 69 48 196 c 0
 48 283 114 349 213 349 c 2
 229 349 l 1
 165 386 133 438 133 504 c 0
 133 600 209 673 303 673 c 0
 436 673 542 595 542 485 c 0
 542 408 493 351 417 334 c 1
323 58 m 0
 372 58 397 79 397 122 c 0
 397 182 343 255 289 288 c 1
 246 288 207 230 207 190 c 0
 207 131 259 58 323 58 c 0
432 531 m 1
 432 480 412 455 372 455 c 0
 332 455 303 490 303 531 c 1
 322 518 342 512 361 512 c 0
 386 512 398 526 398 554 c 1
 377 578 354 590 327 590 c 0
 283 590 256 555 256 510 c 0
 256 477 330 401 377 381 c 1
 422 412 445 447 445 488 c 0
 445 503 441 517 432 531 c 1
EndSplineSet
EndChar

StartChar: nine
Encoding: 57 57 26
Width: 639
Flags: W
LayerCount: 2
Fore
SplineSet
317 -14 m 0
 292 -14 214 20 190 20 c 0
 161 20 144 2 138 -33 c 1
 130 122 127 139 104 196 c 1
 116 189 141 164 178 121 c 0
 207 86 234 68 266 68 c 0
 359 68 421 177 434 344 c 1
 395 287 344 258 280 258 c 0
 167 258 67 363 67 475 c 0
 67 590 176 670 305 670 c 0
 467 670 587 521 587 341 c 0
 587 182 454 -14 317 -14 c 0
435 420 m 1
 404 553 363 596 279 596 c 0
 224 596 182 535 182 459 c 0
 182 394 215 344 265 344 c 0
 309 344 346 391 346 432 c 0
 346 454 338 463 322 463 c 1
 331 453 336 442 336 431 c 0
 336 409 323 398 298 398 c 0
 265 398 248 412 248 439 c 0
 248 475 292 508 336 508 c 0
 381 508 414 479 435 420 c 1
EndSplineSet
EndChar

StartChar: colon
Encoding: 58 58 27
Width: 234
Flags: W
LayerCount: 2
Fore
SplineSet
155 288 m 0
 114 288 80 326 80 365 c 0
 80 391 111 416 147 416 c 0
 182 416 207 383 207 344 c 0
 207 307 190 288 155 288 c 0
212 99 m 0
 212 76 189 58 166 58 c 0
 118 58 94 78 94 117 c 0
 94 145 112 168 139 168 c 0
 170 168 212 129 212 99 c 0
EndSplineSet
EndChar

StartChar: semicolon
Encoding: 59 59 28
Width: 258
Flags: W
LayerCount: 2
Fore
SplineSet
235 152 m 0
 235 101 190 64 139 64 c 1
 140 64 130 65 109 68 c 1
 136 84 158 105 173 132 c 1
 162 123 147 119 129 119 c 0
 96 119 79 132 79 158 c 0
 79 198 113 222 152 222 c 0
 200 222 235 195 235 152 c 0
222 344 m 0
 222 316 190 294 158 294 c 0
 123 294 89 330 89 366 c 0
 89 391 121 409 146 409 c 0
 176 409 222 376 222 344 c 0
EndSplineSet
EndChar

StartChar: less
Encoding: 60 60 29
Width: 381
Flags: W
LayerCount: 2
Fore
SplineSet
312 538 m 1
 313 524 l 1
 313 509 l 2
 313 430 263 352 186 328 c 1
 258 311 312 248 312 175 c 0
 312 148 304 122 289 99 c 1
 263 217 237 255 167 284 c 1
 41 328 l 1
 141 334 279 444 312 538 c 1
EndSplineSet
EndChar

StartChar: equal
Encoding: 61 61 30
Width: 347
Flags: W
LayerCount: 2
Fore
SplineSet
322 180 m 1
 277 213 223 229 160 229 c 0
 128 229 102 223 83 210 c 1
 91 217 95 231 95 250 c 0
 95 262 93 291 93 300 c 1
 110 273 146 260 202 260 c 0
 251 260 280 280 315 300 c 1
 315 279 322 201 322 180 c 1
307 470 m 1
 307 446 l 2
 307 435 305 425 305 417 c 2
 305 357 l 1
 268 384 223 397 170 397 c 0
 136 397 110 391 92 380 c 1
 100 387 104 401 104 420 c 0
 104 432 100 458 100 470 c 1
 118 443 147 430 187 430 c 0
 234 430 235 430 307 470 c 1
EndSplineSet
EndChar

StartChar: greater
Encoding: 62 62 31
Width: 357
Flags: W
LayerCount: 2
Fore
SplineSet
334 328 m 1
 210 284 l 1
 141 255 114 214 88 99 c 1
 73 122 65 148 65 175 c 0
 65 248 119 311 191 328 c 1
 107 353 65 418 65 524 c 2
 65 538 l 1
 98 442 237 334 334 328 c 1
EndSplineSet
EndChar

StartChar: question
Encoding: 63 63 32
Width: 569
Flags: W
LayerCount: 2
Fore
SplineSet
298 224 m 0
 298 203 306 192 323 192 c 0
 355 192 394 223 403 254 c 1
 403 236 l 2
 403 166 372 131 309 131 c 0
 252 131 190 171 190 231 c 0
 190 306 233 327 349 398 c 0
 387 424 406 458 406 500 c 0
 406 570 346 616 278 616 c 0
 231 616 196 574 191 525 c 1
 206 537 220 543 232 543 c 0
 256 543 268 526 268 492 c 0
 268 441 233 400 182 400 c 0
 128 400 90 445 90 509 c 0
 90 600 162 669 274 669 c 0
 428 669 547 577 547 446 c 0
 547 388 514 332 454 332 c 0
 394 332 298 275 298 224 c 0
274 -33 m 0
 223 -33 197 -12 197 29 c 0
 197 69 228 102 268 102 c 0
 311 102 346 71 346 26 c 0
 346 -13 322 -33 274 -33 c 0
EndSplineSet
EndChar

StartChar: at
Encoding: 64 64 33
Width: 771
Flags: W
LayerCount: 2
Fore
SplineSet
720 362 m 0
 720 220 605 75 478 75 c 0
 411 75 374 115 366 196 c 1
 336 161 301 144 261 144 c 0
 225 144 207 167 207 212 c 0
 207 400 406 240 406 403 c 0
 406 436 390 453 358 453 c 0
 333 453 313 445 298 429 c 1
 303 430 308 431 313 431 c 0
 337 431 349 417 349 390 c 0
 349 353 327 334 284 334 c 0
 249 334 225 363 225 402 c 0
 225 461 282 500 358 500 c 0
 439 500 494 431 494 349 c 0
 494 328 442 211 442 186 c 0
 442 153 469 136 522 136 c 0
 584 136 630 242 630 334 c 0
 630 487 510 597 357 597 c 0
 198 597 104 491 104 334 c 0
 104 119 153 53 359 53 c 0
 388 53 484 55 510 55 c 0
 564 55 593 42 657 -27 c 1
 626 -9 590 0 549 0 c 0
 509 0 368 -27 328 -27 c 0
 108 -27 9 77 9 322 c 0
 9 538 157 674 371 674 c 0
 571 674 720 550 720 362 c 0
378 271 m 1
 357 277 341 280 331 280 c 0
 309 280 298 269 298 246 c 0
 298 233 303 226 313 226 c 0
 334 226 355 241 378 271 c 1
EndSplineSet
EndChar

StartChar: A
Encoding: 65 65 34
Width: 713
Flags: W
LayerCount: 2
Fore
SplineSet
431 109 m 0
 431 172 405 222 358 222 c 0
 313 222 279 183 279 138 c 0
 279 94 307 51 362 10 c 1
 286 10 172 5 21 -5 c 1
 56 71 108 142 151 186 c 0
 213 249 252 288 265 304 c 0
 306 356 327 404 327 449 c 0
 327 522 263 573 180 573 c 0
 128 573 102 558 102 528 c 1
 104 518 l 1
 114 522 125 524 136 524 c 0
 176 524 211 490 211 446 c 0
 211 407 184 387 131 387 c 0
 59 387 5 448 5 519 c 0
 5 599 68 651 155 651 c 0
 216 651 423 631 484 631 c 0
 529 631 570 634 607 640 c 1
 586 624 564 473 564 386 c 0
 564 147 641 -2 773 -10 c 1
 727 -10 l 2
 614 -10 503 -7 390 2 c 1
 417 33 431 69 431 109 c 0
492 382 m 0
 492 424 463 486 431 486 c 0
 409 486 398 461 398 411 c 0
 398 354 416 326 451 326 c 0
 478 326 492 345 492 382 c 0
EndSplineSet
EndChar

StartChar: B
Encoding: 66 66 35
Width: 767
Flags: W
LayerCount: 2
Fore
SplineSet
489 -27 m 0
 441 -27 285 5 238 5 c 0
 184 5 113 -2 24 -16 c 1
 125 100 192 154 256 332 c 0
 264 356 269 382 269 410 c 0
 269 503 224 588 170 588 c 0
 145 588 118 573 89 544 c 1
 100 549 110 552 121 552 c 0
 152 552 177 528 177 497 c 0
 177 459 133 435 83 435 c 0
 14 435 -34 480 -34 549 c 0
 -34 623 19 666 104 666 c 0
 139 666 258 647 293 647 c 0
 325 647 435 666 466 666 c 0
 584 666 686 586 686 483 c 0
 686 393 621 332 492 299 c 1
 532 300 l 2
 629 300 719 255 719 167 c 0
 719 60 606 -27 489 -27 c 0
461 250 m 0
 400 250 338 171 338 109 c 0
 338 67 359 46 402 46 c 0
 467 46 522 116 522 190 c 0
 522 230 502 250 461 250 c 0
437 580 m 0
 403 580 386 553 386 500 c 0
 386 445 416 376 453 376 c 0
 487 376 509 432 509 485 c 0
 509 532 476 580 437 580 c 0
EndSplineSet
EndChar

StartChar: C
Encoding: 67 67 36
Width: 627
Flags: W
LayerCount: 2
Fore
SplineSet
598 172 m 0
 598 62 475 -18 344 -18 c 0
 167 -18 56 112 56 312 c 0
 56 508 195 660 390 660 c 0
 501 660 583 603 583 510 c 0
 583 450 528 412 465 412 c 0
 412 412 373 438 373 478 c 0
 373 514 396 529 442 529 c 1
 461 514 l 1
 464 521 466 527 466 532 c 0
 466 563 425 588 391 588 c 0
 287 588 219 501 219 376 c 0
 219 220 309 105 441 105 c 0
 508 105 562 142 562 200 c 0
 562 216 558 233 549 250 c 1
 582 234 598 208 598 172 c 0
EndSplineSet
EndChar

StartChar: D
Encoding: 68 68 37
Width: 752
Flags: W
LayerCount: 2
Fore
SplineSet
698 302 m 0
 698 119 604 6 455 6 c 0
 401 6 229 43 176 43 c 0
 121 43 77 30 44 4 c 1
 47 44 68 77 108 99 c 0
 170 133 205 154 217 166 c 0
 256 206 275 271 275 361 c 0
 275 473 224 597 163 597 c 0
 143 597 124 586 105 563 c 1
 156 554 182 537 182 513 c 0
 182 476 128 449 85 449 c 0
 27 449 -9 498 -9 567 c 0
 -9 628 30 659 108 659 c 0
 145 659 265 639 299 639 c 0
 332 639 446 654 479 654 c 0
 606 654 698 480 698 302 c 0
427 112 m 0
 496 112 531 176 531 303 c 0
 531 435 481 558 411 558 c 0
 391 558 367 430 367 317 c 0
 367 180 387 112 427 112 c 0
EndSplineSet
EndChar

StartChar: E
Encoding: 69 69 38
Width: 751
Flags: W
LayerCount: 2
Fore
SplineSet
725 663 m 1
 727 650 l 1
 727 642 l 2
 727 609 709 515 709 482 c 2
 709 475 l 1
 606 501 536 514 500 514 c 0
 415 514 353 478 353 431 c 0
 353 396 376 378 421 378 c 0
 438 378 461 384 488 398 c 2
 549 430 l 1
 540 415 536 396 536 375 c 0
 536 349 551 269 553 250 c 1
 526 275 495 288 459 288 c 0
 401 288 336 249 336 201 c 0
 336 152 395 128 513 128 c 0
 594 128 651 141 686 168 c 1
 686 124 688 57 691 -33 c 1
 662 18 563 43 395 43 c 0
 264 43 84 18 14 -10 c 1
 38 64 167 214 221 299 c 0
 259 359 278 408 278 441 c 0
 278 498 225 580 166 580 c 0
 143 580 129 567 123 541 c 1
 163 541 204 517 204 478 c 0
 204 432 182 409 137 409 c 0
 82 409 35 455 35 542 c 0
 35 613 74 649 152 649 c 0
 214 649 409 588 470 588 c 0
 547 588 703 628 725 663 c 1
EndSplineSet
EndChar

StartChar: F
Encoding: 70 70 39
Width: 708
Flags: W
LayerCount: 2
Fore
SplineSet
704 663 m 1
 705 655 705 647 705 640 c 0
 705 619 695 531 695 490 c 2
 695 475 l 1
 591 500 l 2
 553 509 518 514 485 514 c 0
 404 514 339 481 339 431 c 0
 339 398 374 378 410 378 c 0
 428 378 450 385 475 398 c 2
 536 430 l 1
 530 417 527 400 527 381 c 0
 527 349 546 259 547 250 c 1
 516 279 484 293 453 293 c 0
 388 293 329 218 329 151 c 0
 329 104 331 104 382 -10 c 1
 334 -10 176 6 128 6 c 0
 81 6 44 1 16 -10 c 1
 27 15 75 90 158 214 c 0
 229 319 265 391 265 430 c 0
 265 502 219 569 148 569 c 0
 132 569 111 544 106 541 c 1
 163 541 191 516 191 465 c 0
 191 433 159 409 124 409 c 0
 60 409 19 472 19 549 c 0
 19 616 57 649 132 649 c 0
 190 649 381 588 437 588 c 0
 523 588 686 631 704 663 c 1
EndSplineSet
EndChar

StartChar: G
Encoding: 71 71 40
Width: 797
Flags: W
LayerCount: 2
Fore
SplineSet
769 236 m 1
 746 271 721 288 695 288 c 0
 643 288 592 211 592 157 c 0
 592 87 622 71 720 -3 c 0
 751 -26 766 -53 766 -84 c 0
 766 -129 730 -184 689 -186 c 1
 697 -169 701 -154 701 -142 c 0
 701 -110 671 -94 612 -94 c 0
 586 -94 561 -109 541 -138 c 2
 483 -221 l 1
 455 -250 421 -265 380 -265 c 0
 319 -265 274 -229 274 -170 c 0
 274 -121 306 -88 353 -88 c 0
 394 -88 415 -101 415 -128 c 0
 415 -143 409 -159 396 -177 c 1
 420 -174 442 -158 461 -131 c 2
 502 -55 l 1
 522 -29 550 -15 587 -14 c 1
 550 -1 526 17 513 40 c 1
 450 -5 389 -28 328 -28 c 0
 171 -28 49 144 49 332 c 0
 49 529 181 657 393 657 c 0
 515 657 576 608 576 510 c 0
 576 449 516 412 455 412 c 0
 402 412 366 441 366 478 c 0
 366 505 396 530 424 530 c 0
 438 530 448 525 454 514 c 1
 457 521 459 527 459 532 c 0
 459 564 415 588 383 588 c 0
 277 588 211 498 211 376 c 0
 211 257 319 92 422 92 c 0
 451 92 478 102 505 122 c 1
 517 153 523 179 523 200 c 0
 523 230 512 245 489 245 c 0
 451 245 425 199 421 162 c 1
 350 209 315 259 315 313 c 0
 315 326 318 339 324 352 c 1
 365 313 404 294 442 294 c 0
 473 294 518 316 579 359 c 0
 640 402 686 424 717 424 c 0
 728 424 738 423 748 420 c 1
 747 408 746 396 746 383 c 0
 746 366 754 317 769 236 c 1
EndSplineSet
EndChar

StartChar: H
Encoding: 72 72 41
Width: 678
Flags: W
LayerCount: 2
Fore
SplineSet
656 46 m 1
 609 1 534 -30 431 -45 c 1
 451 -28 461 0 461 40 c 0
 461 142 399 250 331 250 c 0
 292 250 273 232 273 195 c 0
 273 146 306 75 371 -18 c 1
 316 -9 266 -4 219 -4 c 0
 169 -4 114 -9 53 -20 c 1
 152 147 202 309 202 464 c 0
 202 512 166 571 116 571 c 0
 85 571 66 552 58 514 c 1
 74 526 92 532 111 532 c 0
 136 532 149 520 149 497 c 0
 149 452 117 411 72 411 c 0
 14 411 -35 468 -35 525 c 0
 -35 593 -7 605 123 616 c 2
 181 621 l 2
 246 626 293 640 323 666 c 1
 323 656 l 2
 323 596 290 466 290 431 c 0
 290 379 310 353 351 353 c 0
 406 353 434 390 434 464 c 0
 434 490 424 550 405 644 c 1
 415 642 575 596 635 596 c 1
 535 495 485 389 485 277 c 0
 485 168 542 91 656 46 c 1
EndSplineSet
EndChar

StartChar: I
Encoding: 73 73 42
Width: 395
Flags: W
LayerCount: 2
Fore
SplineSet
372 -18 m 1
 317 -9 264 -4 215 -4 c 0
 163 -4 107 -9 46 -20 c 1
 145 147 194 309 194 464 c 0
 194 520 155 571 108 571 c 0
 79 571 59 552 49 514 c 1
 66 526 84 532 104 532 c 0
 129 532 142 520 142 497 c 0
 142 449 109 411 64 411 c 0
 6 411 -43 466 -43 525 c 0
 -43 569 -21 597 24 608 c 0
 31 612 79 614 170 620 c 0
 236 624 285 640 317 666 c 1
 320 643 321 621 321 600 c 0
 321 535 249 328 249 266 c 0
 249 189 290 95 372 -18 c 1
EndSplineSet
EndChar

StartChar: J
Encoding: 74 74 43
Width: 577
Flags: W
LayerCount: 2
Fore
SplineSet
519 161 m 0
 519 32 441 -42 313 -42 c 0
 199 -42 113 36 113 150 c 0
 113 239 170 303 258 303 c 0
 320 303 373 231 373 172 c 0
 373 128 348 106 299 106 c 0
 267 106 239 133 239 165 c 0
 239 186 250 200 271 209 c 1
 240 204 214 178 214 147 c 0
 214 94 255 50 307 50 c 0
 366 50 403 106 403 192 c 0
 403 229 389 276 360 331 c 0
 331 387 317 427 317 451 c 0
 317 482 328 515 349 551 c 1
 332 542 315 538 298 538 c 0
 267 538 152 582 134 582 c 0
 111 582 96 568 87 541 c 1
 99 551 111 556 122 556 c 0
 141 556 151 543 151 518 c 0
 151 485 125 459 93 459 c 0
 36 459 0 495 0 552 c 0
 0 612 47 655 123 655 c 0
 164 655 296 615 336 615 c 0
 363 615 421 626 512 649 c 1
 465 600 441 548 441 492 c 0
 441 428 519 226 519 161 c 0
EndSplineSet
EndChar

StartChar: K
Encoding: 75 75 44
Width: 718
Flags: W
LayerCount: 2
Fore
SplineSet
696 68 m 1
 671 -1 611 -54 549 -54 c 0
 492 -54 454 -20 435 49 c 1
 409 241 l 2
 400 310 376 344 339 344 c 0
 284 344 256 318 256 265 c 0
 256 196 308 72 372 -18 c 1
 320 -9 268 -4 215 -4 c 0
 160 -4 103 -9 46 -20 c 1
 145 147 194 309 194 464 c 0
 194 521 151 571 106 571 c 0
 78 571 59 552 49 514 c 1
 66 526 85 532 104 532 c 0
 129 532 142 520 142 495 c 0
 142 448 112 411 65 411 c 0
 6 411 -43 466 -43 525 c 0
 -43 568 -20 596 26 607 c 0
 34 610 84 614 175 622 c 0
 240 627 288 643 317 666 c 1
 318 655 319 643 319 630 c 0
 319 567 264 406 265 411 c 0
 352 456 425 540 486 663 c 1
 529 633 552 629 675 629 c 1
 628 531 563 503 358 386 c 1
 389 394 417 398 442 398 c 0
 503 398 542 371 559 318 c 0
 566 295 569 243 569 161 c 0
 569 78 585 49 626 49 c 0
 645 49 668 55 696 68 c 1
EndSplineSet
EndChar

StartChar: L
Encoding: 76 76 45
Width: 659
Flags: W
LayerCount: 2
Fore
SplineSet
636 196 m 1
 637 186 637 176 637 167 c 0
 637 50 559 -23 440 -23 c 0
 400 -23 270 10 231 10 c 0
 210 10 153 0 60 -20 c 1
 160 147 210 309 210 464 c 0
 210 514 173 571 122 571 c 0
 93 571 73 552 64 514 c 1
 83 526 101 532 118 532 c 0
 144 532 157 519 157 494 c 0
 157 447 125 412 80 412 c 0
 20 412 -27 466 -27 525 c 0
 -27 568 -5 596 40 607 c 0
 52 610 101 615 188 622 c 0
 255 628 303 643 332 666 c 1
 333 652 334 637 334 621 c 0
 334 547 266 301 266 227 c 0
 266 197 270 169 277 143 c 1
 308 166 339 178 370 178 c 0
 408 178 518 112 541 112 c 0
 572 112 603 140 636 196 c 1
EndSplineSet
EndChar

StartChar: M
Encoding: 77 77 46
Width: 854
Flags: W
LayerCount: 2
Fore
SplineSet
831 34 m 1
 806 24 715 22 703 21 c 0
 671 16 573 -16 551 -20 c 1
 582 17 598 68 598 131 c 0
 598 179 566 342 566 390 c 1
 524 350 490 253 490 180 c 0
 490 159 493 141 499 126 c 1
 415 169 319 303 289 409 c 1
 277 386 271 357 271 321 c 0
 271 229 325 56 380 -18 c 1
 326 -9 274 -4 224 -4 c 0
 170 -4 113 -9 53 -20 c 1
 152 147 202 309 202 464 c 0
 202 512 167 571 114 571 c 0
 85 571 66 552 58 514 c 1
 74 526 92 532 111 532 c 0
 136 532 149 520 149 497 c 0
 149 452 117 411 72 411 c 0
 14 411 -35 466 -35 525 c 0
 -35 570 -6 599 53 612 c 0
 61 612 117 618 220 626 c 0
 283 630 316 644 321 670 c 1
 336 641 353 581 372 490 c 0
 389 411 412 354 440 319 c 1
 447 351 465 390 495 435 c 2
 567 543 l 1
 590 586 601 629 601 670 c 1
 642 645 738 616 786 616 c 1
 717 600 684 509 684 392 c 0
 684 238 744 78 831 34 c 1
EndSplineSet
EndChar

StartChar: N
Encoding: 78 78 47
Width: 759
Flags: W
LayerCount: 2
Fore
SplineSet
738 6 m 1
 713 -3 484 -25 453 -33 c 1
 453 -23 l 2
 453 51 441 137 416 235 c 0
 382 368 344 434 299 434 c 1
 290 432 l 1
 269 358 258 299 258 254 c 0
 258 169 276 129 380 -18 c 1
 325 -9 273 -4 224 -4 c 0
 171 -4 114 -9 53 -20 c 1
 152 147 202 309 202 464 c 0
 202 512 167 571 114 571 c 0
 85 571 66 552 58 514 c 1
 74 526 92 532 111 532 c 0
 136 532 149 520 149 497 c 0
 149 452 117 411 72 411 c 0
 14 411 -35 468 -35 525 c 0
 -35 568 -12 596 33 607 c 0
 40 610 90 613 181 621 c 0
 246 626 293 642 323 666 c 1
 323 652 l 2
 323 648 322 643 322 639 c 0
 322 593 337 542 367 486 c 1
 402 431 515 257 531 162 c 1
 540 193 544 226 544 261 c 0
 544 374 496 504 400 651 c 1
 708 651 l 1
 694 648 676 615 654 552 c 0
 614 436 608 386 608 312 c 0
 608 181 651 79 738 6 c 1
EndSplineSet
EndChar

StartChar: O
Encoding: 79 79 48
Width: 640
Flags: W
LayerCount: 2
Fore
SplineSet
327 676 m 0
 473 676 582 486 582 288 c 0
 582 93 485 -27 309 -27 c 0
 151 -27 48 111 48 305 c 0
 48 511 162 676 327 676 c 0
422 440 m 1
 410 395 384 372 344 372 c 0
 299 372 254 405 254 448 c 0
 254 471 272 501 292 508 c 1
 295 468 l 1
 306 461 317 458 326 458 c 0
 356 458 385 492 385 532 c 0
 385 579 349 603 302 603 c 0
 237 603 196 512 196 387 c 0
 196 240 250 95 310 95 c 0
 386 95 434 187 434 333 c 0
 434 376 430 411 422 440 c 1
EndSplineSet
EndChar

StartChar: P
Encoding: 80 80 49
Width: 657
Flags: W
LayerCount: 2
Fore
SplineSet
334 153 m 0
 334 91 351 35 385 -16 c 1
 365 -16 l 2
 324 -16 179 -8 138 -8 c 0
 105 -8 74 -10 46 -13 c 1
 169 72 225 209 225 412 c 0
 225 493 153 602 92 602 c 0
 69 602 47 589 26 563 c 1
 38 568 49 571 60 571 c 0
 99 571 119 546 119 497 c 0
 119 454 75 426 30 426 c 0
 -26 426 -62 469 -62 538 c 0
 -62 622 -29 664 38 664 c 0
 72 664 195 640 232 640 c 0
 260 640 360 657 387 657 c 0
 514 657 635 566 635 455 c 0
 635 380 597 313 539 289 c 1
 403 263 l 1
 357 248 334 212 334 153 c 0
367 571 m 0
 340 571 327 553 327 518 c 0
 327 438 367 341 415 341 c 0
 446 341 461 366 461 416 c 0
 461 519 430 571 367 571 c 0
EndSplineSet
EndChar

StartChar: Q
Encoding: 81 81 50
Width: 707
Flags: W
LayerCount: 2
Fore
SplineSet
732 -8 m 0
 732 -76 645 -140 553 -140 c 0
 469 -140 415 -100 392 -20 c 1
 366 -26 341 -29 317 -29 c 0
 156 -29 56 115 56 310 c 0
 56 512 165 676 334 676 c 0
 481 676 588 491 588 290 c 0
 588 165 552 75 479 21 c 1
 492 -31 527 -64 567 -64 c 0
 598 -64 621 -46 636 -10 c 1
 625 -13 616 -15 608 -15 c 0
 572 -15 554 2 554 35 c 0
 554 79 592 106 636 106 c 0
 699 106 732 57 732 -8 c 0
430 440 m 1
 417 392 393 368 358 368 c 0
 314 368 258 413 258 460 c 0
 258 483 272 499 299 508 c 1
 303 466 l 1
 316 458 328 454 341 454 c 0
 374 454 396 489 396 525 c 0
 396 574 358 603 309 603 c 0
 242 603 204 521 204 392 c 0
 204 254 257 92 326 92 c 0
 345 92 363 101 381 119 c 1
 375 197 340 236 275 236 c 1
 296 255 317 264 337 264 c 0
 371 264 400 243 424 201 c 1
 436 242 442 286 442 333 c 0
 442 372 438 407 430 440 c 1
EndSplineSet
EndChar

StartChar: R
Encoding: 82 82 51
Width: 754
Flags: W
LayerCount: 2
Fore
SplineSet
694 234 m 1
 713 195 722 144 722 82 c 0
 722 -37 684 -97 607 -97 c 0
 544 -97 501 -66 480 -3 c 0
 472 22 465 81 459 172 c 0
 455 236 441 268 416 268 c 0
 385 268 362 206 362 146 c 0
 362 88 379 32 412 -17 c 1
 401 -17 l 2
 357 -17 207 -1 163 -1 c 0
 133 -1 105 -3 79 -6 c 1
 205 106 249 206 249 412 c 0
 249 486 182 581 114 581 c 0
 90 581 68 568 49 541 c 1
 59 545 69 547 78 547 c 0
 113 547 144 518 144 486 c 0
 144 449 116 431 61 431 c 0
 -13 431 -77 495 -77 569 c 0
 -77 632 -38 663 39 663 c 0
 78 663 208 640 246 640 c 0
 275 640 368 657 397 657 c 0
 548 657 658 564 658 437 c 0
 658 349 599 286 512 273 c 1
 575 272 607 247 607 200 c 0
 607 178 586 106 586 80 c 0
 586 65 593 58 608 58 c 0
 672 58 677 148 694 234 c 1
395 588 m 0
 367 588 353 568 353 529 c 0
 353 466 397 344 445 344 c 0
 474 344 489 372 489 429 c 0
 489 502 448 588 395 588 c 0
EndSplineSet
EndChar

StartChar: S
Encoding: 83 83 52
Width: 587
Flags: W
LayerCount: 2
Fore
SplineSet
204 485 m 0
 204 373 359 359 464 297 c 0
 517 266 528 195 528 157 c 0
 528 49 400 -29 279 -29 c 0
 206 -29 154 -6 123 39 c 0
 117 47 99 91 68 171 c 0
 49 221 18 250 -24 259 c 1
 11 279 42 289 70 289 c 0
 105 289 141 271 171 235 c 0
 197 204 283 80 341 80 c 0
 371 80 386 106 386 157 c 0
 386 196 358 229 302 254 c 0
 214 293 162 318 146 331 c 0
 89 376 60 442 60 530 c 0
 60 612 159 670 282 670 c 0
 409 670 499 609 499 513 c 0
 499 429 464 373 403 373 c 0
 345 373 294 426 294 486 c 0
 294 530 317 552 363 552 c 0
 376 552 389 549 402 544 c 1
 402 551 l 2
 402 594 376 616 324 616 c 0
 267 616 204 577 204 485 c 0
EndSplineSet
EndChar

StartChar: T
Encoding: 84 84 53
Width: 598
Flags: W
LayerCount: 2
Fore
SplineSet
543 494 m 1
 530 530 486 548 410 548 c 0
 348 548 314 460 314 307 c 0
 314 146 337 101 425 -18 c 1
 371 -9 319 -4 269 -4 c 0
 217 -4 160 -9 99 -20 c 1
 198 148 248 318 248 489 c 0
 248 544 197 578 141 578 c 0
 88 578 55 557 43 514 c 1
 60 526 79 532 98 532 c 0
 124 532 137 520 137 497 c 0
 137 449 104 411 59 411 c 0
 -1 411 -49 466 -49 525 c 0
 -49 608 20 640 212 643 c 0
 369 645 399 654 531 732 c 1
 526 719 524 703 524 686 c 0
 524 655 544 546 544 517 c 0
 544 509 544 501 543 494 c 1
EndSplineSet
EndChar

StartChar: U
Encoding: 85 85 54
Width: 641
Flags: W
LayerCount: 2
Fore
SplineSet
634 6 m 1
 419 -42 l 1
 430 -6 434 27 434 61 c 2
 432 88 l 1
 386 7 327 -33 254 -33 c 0
 163 -33 87 41 87 133 c 0
 87 197 141 401 141 464 c 0
 141 519 97 571 53 571 c 0
 24 571 5 552 -5 514 c 1
 12 526 30 532 49 532 c 0
 75 532 88 520 88 495 c 0
 88 448 57 411 12 411 c 0
 -48 411 -96 466 -96 525 c 0
 -96 567 -73 594 -27 607 c 0
 -18 608 31 614 121 622 c 0
 187 627 234 643 263 666 c 1
 265 649 266 631 266 612 c 0
 266 548 234 334 234 270 c 0
 234 185 268 109 327 109 c 0
 383 109 411 221 411 446 c 0
 411 494 375 622 371 651 c 1
 426 632 491 622 564 622 c 1
 515 553 490 473 490 381 c 0
 490 241 538 116 634 6 c 1
EndSplineSet
EndChar

StartChar: V
Encoding: 86 86 55
Width: 705
Flags: W
LayerCount: 2
Fore
SplineSet
699 554 m 1
 595 502 479 230 479 70 c 0
 479 33 484 3 495 -20 c 1
 467 -13 435 -9 398 -9 c 0
 361 -9 325 -13 292 -20 c 1
 309 39 317 96 317 151 c 0
 317 335 229 575 134 575 c 0
 107 575 89 555 79 514 c 1
 96 530 115 538 136 538 c 0
 161 538 173 525 173 500 c 0
 173 455 138 415 93 415 c 0
 34 415 -13 467 -13 525 c 0
 -13 567 11 594 58 607 c 0
 67 608 116 614 205 622 c 0
 270 627 318 643 347 666 c 1
 366 524 379 383 411 234 c 1
 428 389 459 534 502 670 c 1
 569 617 634 579 699 554 c 1
EndSplineSet
EndChar

StartChar: W
Encoding: 87 87 56
Width: 1005
Flags: W
LayerCount: 2
Fore
SplineSet
998 622 m 1
 946 599 902 524 865 398 c 0
 834 292 818 201 818 124 c 0
 818 61 828 17 849 -8 c 1
 814 -8 704 -20 670 -20 c 0
 657 -20 644 -19 631 -18 c 1
 633 -7 634 6 634 20 c 0
 634 92 588 243 544 310 c 1
 481 141 474 122 474 53 c 0
 474 25 479 1 489 -20 c 1
 458 -12 425 -8 390 -8 c 0
 355 -8 319 -12 284 -20 c 1
 300 36 308 93 308 151 c 0
 308 227 294 310 266 400 c 0
 229 517 183 575 126 575 c 0
 100 575 81 555 70 514 c 1
 88 530 107 538 127 538 c 0
 153 538 166 525 166 499 c 0
 166 454 132 415 87 415 c 0
 28 415 -20 467 -20 525 c 0
 -20 567 3 594 50 607 c 0
 59 610 109 615 199 624 c 0
 264 631 311 645 339 666 c 1
 363 407 364 340 403 234 c 1
 453 340 483 485 494 670 c 1
 644 670 l 1
 644 511 664 363 703 227 c 1
 716 255 737 327 761 442 c 0
 783 546 796 622 801 670 c 1
 826 660 959 649 998 622 c 1
EndSplineSet
EndChar

StartChar: X
Encoding: 88 88 57
Width: 695
Flags: W
LayerCount: 2
Fore
SplineSet
673 -20 m 1
 640 -12 601 -8 554 -8 c 0
 508 -8 466 -12 427 -20 c 1
 427 81 407 177 367 268 c 1
 324 223 302 168 302 102 c 0
 302 43 326 4 375 -16 c 1
 342 -9 299 -6 245 -6 c 0
 173 -6 115 -11 70 -20 c 1
 106 16 135 60 158 111 c 0
 237 283 275 321 324 354 c 1
 244 500 181 573 134 573 c 0
 113 573 97 553 87 514 c 1
 104 530 121 538 139 538 c 0
 161 538 172 526 172 502 c 0
 172 454 143 415 95 415 c 0
 38 415 -5 468 -5 525 c 0
 -5 567 18 594 64 607 c 0
 75 607 125 616 214 624 c 0
 280 629 327 643 356 666 c 1
 366 585 386 501 417 416 c 1
 514 485 538 522 538 592 c 0
 538 612 536 636 531 663 c 1
 612 632 652 595 652 551 c 0
 652 494 601 437 449 333 c 1
 510 188 585 71 673 -20 c 1
EndSplineSet
EndChar

StartChar: Y
Encoding: 89 89 58
Width: 729
Flags: W
LayerCount: 2
Fore
SplineSet
707 554 m 1
 563 509 465 344 465 161 c 0
 465 94 478 34 503 -20 c 1
 474 -13 442 -9 405 -9 c 0
 367 -9 332 -13 300 -20 c 1
 331 69 363 161 363 258 c 0
 363 372 237 568 138 568 c 0
 113 568 96 550 87 514 c 1
 104 530 122 538 143 538 c 0
 168 538 181 525 181 500 c 0
 181 453 146 415 99 415 c 0
 40 415 -5 465 -5 525 c 0
 -5 567 18 594 64 607 c 0
 74 608 123 614 212 622 c 0
 277 627 325 643 356 666 c 1
 373 511 391 438 419 365 c 1
 455 440 504 654 510 670 c 1
 577 617 642 579 707 554 c 1
EndSplineSet
EndChar

StartChar: Z
Encoding: 90 90 59
Width: 658
Flags: W
LayerCount: 2
Fore
SplineSet
630 175 m 1
 630 62 569 -29 478 -29 c 0
 442 -29 327 39 271 39 c 0
 221 39 157 22 79 -11 c 1
 79 72 110 148 175 216 c 0
 234 277 289 319 351 367 c 0
 417 418 445 476 446 527 c 1
 429 519 412 515 393 515 c 0
 352 515 218 577 201 577 c 0
 172 577 155 553 148 504 c 1
 161 536 178 552 199 552 c 0
 223 552 235 533 235 494 c 0
 235 445 213 420 168 420 c 0
 116 420 79 466 79 519 c 0
 79 617 121 666 204 666 c 0
 260 666 448 624 503 624 c 0
 549 624 587 634 616 655 c 1
 616 640 l 2
 616 567 585 499 524 437 c 1
 484 405 424 358 347 290 c 0
 289 238 256 184 258 126 c 2
 259 99 l 1
 292 129 324 144 357 144 c 0
 384 144 477 109 505 109 c 0
 546 109 587 131 630 175 c 1
EndSplineSet
EndChar

StartChar: backslash
Encoding: 92 92 60
Width: 551
Flags: W
LayerCount: 2
Fore
SplineSet
529 114 m 1
 474 61 437 14 420 -27 c 1
 392 -5 360 53 321 146 c 0
 272 261 232 342 204 387 c 0
 149 477 88 536 19 563 c 1
 81 594 133 631 175 673 c 1
 176 608 194 530 234 437 c 0
 318 239 428 116 529 114 c 1
EndSplineSet
EndChar

StartChar: grave
Encoding: 96 96 61
Width: 292
Flags: W
LayerCount: 2
Fore
SplineSet
41 639 m 1
 78 630 105 625 122 625 c 0
 139 625 157 630 175 639 c 1
 180 579 200 526 236 480 c 1
 168 480 l 1
 117 515 75 568 41 639 c 1
EndSplineSet
EndChar

StartChar: a
Encoding: 97 97 62
Width: 422
Flags: W
LayerCount: 2
Fore
SplineSet
241 -32 m 1
 259 -10 268 12 268 35 c 1
 245 -8 177 -42 126 -42 c 0
 65 -42 35 -5 35 70 c 0
 35 146 58 166 191 166 c 0
 236 166 259 179 259 204 c 0
 259 261 243 289 211 289 c 0
 181 289 136 255 136 222 c 0
 136 215 140 209 147 204 c 1
 145 208 144 212 144 215 c 0
 144 234 155 244 177 244 c 0
 198 244 209 236 209 221 c 0
 209 200 186 180 165 180 c 0
 108 180 79 195 79 226 c 0
 79 275 156 322 221 322 c 0
 295 322 370 263 370 199 c 0
 370 168 333 72 333 41 c 0
 333 11 355 -5 399 -9 c 1
 322 -10 269 -17 241 -32 c 1
249 151 m 1
 149 122 128 109 128 73 c 0
 128 37 141 19 167 19 c 0
 215 19 249 86 249 151 c 1
EndSplineSet
EndChar

StartChar: b
Encoding: 98 98 63
Width: 509
Flags: W
LayerCount: 2
Fore
SplineSet
478 146 m 0
 478 39 395 -22 271 -22 c 0
 208 -22 170 -10 155 15 c 1
 132 -16 106 -32 75 -32 c 0
 58 -32 -2 -23 -20 -23 c 1
 76 48 89 70 89 132 c 0
 89 215 48 345 4 412 c 1
 60 427 91 435 97 436 c 0
 134 448 160 464 175 485 c 1
 175 245 l 1
 181 291 245 337 295 337 c 0
 385 337 478 233 478 146 c 0
274 63 m 0
 303 63 317 87 317 136 c 0
 317 181 298 224 269 224 c 0
 231 224 212 187 212 113 c 1
 236 79 l 2
 246 68 259 63 274 63 c 0
EndSplineSet
EndChar

StartChar: c
Encoding: 99 99 64
Width: 445
Flags: W
LayerCount: 2
Fore
SplineSet
353 279 m 1
 414 332 l 1
 403 290 389 246 371 200 c 1
 356 216 333 224 300 224 c 0
 241 224 200 180 200 121 c 0
 200 64 241 24 298 24 c 0
 343 24 376 34 395 53 c 1
 380 -6 322 -40 249 -40 c 0
 140 -40 54 29 54 122 c 0
 54 236 151 319 265 319 c 0
 310 319 340 306 353 279 c 1
EndSplineSet
EndChar

StartChar: d
Encoding: 100 100 65
Width: 536
Flags: W
LayerCount: 2
Fore
SplineSet
543 -23 m 1
 524 -23 465 -32 446 -32 c 0
 417 -32 390 -16 367 15 c 1
 353 -10 314 -22 250 -22 c 0
 127 -22 45 42 45 146 c 0
 45 235 139 337 227 337 c 0
 275 337 341 292 348 244 c 1
 348 485 l 1
 363 464 389 448 426 436 c 0
 432 435 463 427 519 412 c 1
 475 345 434 215 434 132 c 0
 434 69 447 48 543 -23 c 1
287 79 m 2
 312 113 l 1
 312 187 293 224 254 224 c 0
 225 224 205 180 205 136 c 0
 205 87 220 63 249 63 c 0
 264 63 276 68 287 79 c 2
EndSplineSet
EndChar

StartChar: e
Encoding: 101 101 66
Width: 436
Flags: W
LayerCount: 2
Fore
SplineSet
391 143 m 1
 370 35 313 -19 220 -19 c 0
 119 -19 44 43 44 136 c 0
 44 231 119 294 214 294 c 0
 274 294 325 273 368 231 c 1
 355 230 329 211 291 174 c 0
 253 137 221 118 194 116 c 1
 206 90 232 77 273 77 c 0
 308 77 348 99 391 143 c 1
234 224 m 1
 209 235 188 241 173 241 c 0
 154 241 144 231 144 211 c 0
 144 192 150 174 163 156 c 1
 209 164 227 217 234 224 c 1
EndSplineSet
EndChar

StartChar: f
Encoding: 102 102 67
Width: 367
Flags: W
LayerCount: 2
Fore
SplineSet
313 152 m 1
 297 152 255 171 239 171 c 0
 206 171 190 152 190 113 c 0
 190 84 223 42 289 -14 c 1
 263 -23 189 -28 67 -28 c 2
 51 -28 l 1
 94 8 124 74 124 129 c 0
 124 174 104 196 65 196 c 0
 54 196 42 194 28 190 c 1
 32 199 35 212 35 227 c 0
 35 232 34 243 33 279 c 1
 63 267 80 261 85 261 c 0
 99 261 107 278 109 313 c 0
 116 436 139 460 202 460 c 0
 257 460 298 402 298 348 c 0
 298 302 275 279 230 279 c 0
 204 279 191 290 191 313 c 0
 191 327 197 341 209 356 c 1
 173 356 155 342 155 310 c 0
 155 275 188 250 225 250 c 0
 244 250 263 255 284 266 c 1
 291 241 301 203 313 152 c 1
EndSplineSet
EndChar

StartChar: g
Encoding: 103 103 68
Width: 488
Flags: W
LayerCount: 2
Fore
SplineSet
495 200 m 0
 495 156 476 134 439 134 c 0
 411 134 378 152 378 172 c 0
 378 183 385 192 398 200 c 1
 390 207 381 210 372 210 c 0
 355 210 342 199 333 178 c 1
 368 158 398 117 398 89 c 0
 398 44 375 12 328 -10 c 0
 316 -16 275 -29 202 -49 c 1
 263 -54 450 -64 450 -146 c 0
 450 -232 331 -292 196 -292 c 0
 116 -292 56 -266 56 -226 c 0
 56 -192 70 -167 99 -150 c 0
 118 -139 220 -121 220 -104 c 1
 141 -103 102 -88 102 -60 c 0
 102 -26 138 -18 235 1 c 1
 119 1 31 62 31 153 c 0
 31 225 94 277 177 277 c 0
 231 277 276 263 313 234 c 1
 315 265 351 285 395 285 c 0
 450 285 495 253 495 200 c 0
225 61 m 0
 248 61 260 78 260 112 c 0
 260 155 236 214 202 214 c 0
 179 214 168 194 168 153 c 0
 168 106 191 61 225 61 c 0
327 -161 m 0
 327 -138 311 -126 281 -126 c 2
 274 -126 l 1
 270 -149 210 -180 210 -191 c 0
 210 -216 224 -228 253 -228 c 0
 292 -228 327 -201 327 -161 c 0
EndSplineSet
EndChar

StartChar: h
Encoding: 104 104 69
Width: 401
Flags: W
LayerCount: 2
Fore
SplineSet
348 40 m 2
 367 -23 l 1
 302 -23 l 2
 274 -23 250 -22 229 -19 c 1
 254 -6 266 30 266 87 c 0
 266 149 241 210 214 210 c 0
 182 210 166 193 166 160 c 0
 166 134 187 46 187 20 c 0
 187 6 185 -7 181 -19 c 1
 26 -14 l 1
 71 1 93 54 93 143 c 0
 93 229 59 383 21 430 c 1
 46 426 67 424 83 424 c 0
 124 424 156 435 181 456 c 1
 162 388 153 347 153 333 c 0
 153 318 155 297 158 271 c 1
 182 299 207 313 234 313 c 0
 289 313 323 244 334 105 c 0
 337 85 341 63 348 40 c 2
EndSplineSet
EndChar

StartChar: i
Encoding: 105 105 70
Width: 288
Flags: W
LayerCount: 2
Fore
SplineSet
137 442 m 0
 190 442 216 426 216 393 c 0
 216 356 173 332 134 332 c 0
 91 332 70 347 70 378 c 0
 70 414 102 442 137 442 c 0
240 -11 m 1
 221 -8 197 -6 170 -6 c 0
 125 -6 74 -11 19 -21 c 1
 63 0 116 109 116 156 c 0
 116 200 70 252 26 256 c 1
 56 278 139 290 207 299 c 1
 196 278 191 247 191 204 c 0
 191 107 207 35 240 -11 c 1
EndSplineSet
EndChar

StartChar: j
Encoding: 106 106 71
Width: 308
Flags: W
LayerCount: 2
Fore
SplineSet
227 382 m 0
 227 340 203 319 156 319 c 0
 112 319 70 344 70 370 c 0
 70 410 114 441 158 441 c 0
 204 441 227 421 227 382 c 0
290 -8 m 0
 290 -76 200 -150 128 -150 c 0
 75 -150 49 -129 49 -88 c 0
 49 -51 81 -23 118 -23 c 0
 145 -23 171 -43 171 -67 c 0
 171 -80 164 -90 151 -99 c 1
 185 -80 202 -57 202 -30 c 0
 202 -17 196 10 181 44 c 0
 124 175 90 200 24 200 c 1
 26 201 189 276 236 319 c 1
 215 288 204 262 204 240 c 0
 204 230 218 195 247 136 c 0
 276 77 290 29 290 -8 c 0
EndSplineSet
EndChar

StartChar: k
Encoding: 107 107 72
Width: 474
Flags: W
LayerCount: 2
Fore
SplineSet
451 -28 m 1
 398 -30 342 -36 314 -57 c 1
 316 -50 317 -42 317 -33 c 0
 317 28 284 95 238 95 c 0
 209 95 195 80 195 51 c 0
 195 18 216 -5 258 -19 c 1
 239 -25 216 -28 190 -28 c 0
 163 -28 76 -19 49 -19 c 1
 94 22 133 129 133 210 c 0
 133 305 96 352 21 352 c 1
 177 475 l 1
 178 458 181 437 192 416 c 2
 220 361 l 1
 230 332 235 292 235 241 c 0
 235 210 233 180 229 152 c 1
 237 161 247 180 259 209 c 0
 291 286 304 299 343 299 c 0
 373 299 422 277 422 243 c 0
 422 189 402 162 361 162 c 0
 330 162 315 173 315 195 c 0
 315 202 319 210 326 219 c 1
 295 212 271 184 271 152 c 0
 271 131 297 100 349 60 c 0
 410 12 444 -17 451 -28 c 1
EndSplineSet
EndChar

StartChar: l
Encoding: 108 108 73
Width: 290
Flags: W
LayerCount: 2
Fore
SplineSet
279 -9 m 1
 259 -6 237 -5 214 -5 c 0
 163 -5 106 -11 43 -23 c 1
 96 31 123 99 123 182 c 0
 123 269 99 340 51 395 c 1
 103 412 148 435 185 465 c 1
 185 213 216 55 279 -9 c 1
EndSplineSet
EndChar

StartChar: m
Encoding: 109 109 74
Width: 587
Flags: W
LayerCount: 2
Fore
SplineSet
592 -3 m 1
 585 -13 574 -18 557 -18 c 0
 506 -18 473 3 456 45 c 0
 453 54 446 93 436 161 c 0
 430 203 415 224 390 224 c 0
 353 224 324 169 324 105 c 0
 324 45 344 5 383 -14 c 1
 365 -19 348 -22 331 -22 c 0
 292 -22 265 -3 249 36 c 1
 224 149 l 2
 215 190 197 210 176 210 c 0
 153 210 142 190 142 149 c 0
 142 113 145 83 153 65 c 0
 160 49 209 3 217 -14 c 1
 192 -18 162 -20 126 -20 c 2
 74 -20 l 2
 56 -20 42 -19 31 -19 c 2
 24 -19 l 1
 45 10 56 49 56 100 c 0
 56 168 36 213 -5 234 c 1
 18 239 44 250 68 274 c 2
 127 332 l 1
 131 311 133 282 133 246 c 1
 162 306 201 336 249 336 c 0
 276 336 297 322 314 295 c 1
 334 330 359 347 390 347 c 0
 455 347 501 319 519 263 c 0
 523 250 527 196 534 102 c 0
 538 41 559 6 592 -3 c 1
EndSplineSet
EndChar

StartChar: n
Encoding: 110 110 75
Width: 445
Flags: W
LayerCount: 2
Fore
SplineSet
416 -14 m 1
 408 -17 397 -19 383 -19 c 0
 330 -19 294 1 277 40 c 0
 272 51 265 87 255 150 c 0
 248 190 233 210 209 210 c 0
 184 210 171 188 171 144 c 0
 171 78 206 8 250 -14 c 1
 225 -18 194 -20 158 -20 c 2
 107 -20 l 2
 89 -20 76 -19 65 -19 c 2
 58 -19 l 1
 79 10 89 49 89 100 c 0
 89 167 69 212 28 234 c 1
 49 241 72 255 97 277 c 2
 160 332 l 1
 164 312 166 283 166 246 c 1
 195 303 231 332 275 332 c 0
 335 332 376 275 376 200 c 0
 376 175 357 92 357 67 c 0
 357 32 377 5 416 -14 c 1
EndSplineSet
EndChar

StartChar: o
Encoding: 111 111 76
Width: 454
Flags: W
LayerCount: 2
Fore
SplineSet
251 -28 m 0
 139 -28 48 35 48 134 c 0
 48 234 125 314 225 314 c 0
 343 314 424 242 424 141 c 0
 424 40 352 -28 251 -28 c 0
336 80 m 0
 336 131 244 246 192 246 c 0
 175 246 166 231 166 201 c 0
 166 148 257 46 310 46 c 0
 327 46 336 57 336 80 c 0
EndSplineSet
EndChar

StartChar: p
Encoding: 112 112 77
Width: 522
Flags: W
LayerCount: 2
Fore
SplineSet
492 146 m 0
 492 53 400 -47 310 -47 c 0
 265 -47 196 -4 190 43 c 1
 190 -194 l 1
 161 -156 155 -156 19 -122 c 1
 65 -53 104 76 104 158 c 0
 104 220 90 243 -5 314 c 1
 14 314 73 322 92 322 c 0
 121 322 147 307 170 276 c 1
 184 301 223 313 287 313 c 0
 410 313 492 250 492 146 c 0
289 229 m 0
 275 229 262 223 251 211 c 2
 227 176 l 1
 227 103 246 67 284 67 c 0
 314 67 332 110 332 155 c 0
 332 204 318 229 289 229 c 0
EndSplineSet
EndChar

StartChar: q
Encoding: 113 113 78
Width: 557
Flags: W
LayerCount: 2
Fore
SplineSet
548 314 m 1
 453 244 440 219 440 158 c 0
 440 77 479 -52 524 -122 c 1
 431 -146 l 2
 394 -158 368 -174 354 -194 c 1
 354 45 l 1
 345 -4 280 -47 234 -47 c 0
 143 -47 50 55 50 146 c 0
 50 251 134 313 256 313 c 0
 319 313 358 301 372 276 c 1
 395 307 422 322 453 322 c 0
 471 322 530 314 548 314 c 1
317 176 m 1
 292 211 l 2
 283 223 268 229 254 229 c 0
 225 229 211 204 211 155 c 0
 211 105 231 67 259 67 c 0
 298 67 317 103 317 176 c 1
EndSplineSet
EndChar

StartChar: r
Encoding: 114 114 79
Width: 474
Flags: W
LayerCount: 2
Fore
SplineSet
441 294 m 0
 441 227 416 194 367 194 c 0
 334 194 298 217 298 249 c 0
 298 268 309 285 332 302 c 1
 259 296 212 226 212 137 c 0
 212 66 248 5 303 -4 c 1
 33 -9 l 1
 80 31 104 82 104 143 c 0
 104 190 100 198 15 246 c 1
 37 273 129 331 151 356 c 1
 151 334 172 269 172 246 c 1
 240 345 288 376 361 376 c 0
 406 376 441 339 441 294 c 0
EndSplineSet
EndChar

StartChar: s
Encoding: 115 115 80
Width: 431
Flags: W
LayerCount: 2
Fore
SplineSet
406 251 m 0
 406 216 389 199 354 199 c 0
 314 199 266 225 266 251 c 0
 266 267 282 278 313 285 c 1
 298 294 279 299 258 299 c 0
 233 299 220 290 220 271 c 0
 220 250 235 232 264 216 c 2
 346 170 l 1
 375 148 390 120 390 87 c 0
 390 17 317 -28 224 -28 c 0
 178 -28 100 19 65 19 c 0
 53 19 6 15 -6 15 c 1
 23 41 118 148 143 171 c 1
 143 162 l 2
 143 87 157 49 186 49 c 0
 216 49 241 94 241 119 c 0
 241 143 225 165 194 177 c 2
 107 210 l 2
 75 222 60 245 60 271 c 0
 60 319 134 353 229 353 c 0
 326 353 406 314 406 251 c 0
EndSplineSet
EndChar

StartChar: t
Encoding: 116 116 81
Width: 510
Flags: W
LayerCount: 2
Fore
SplineSet
486 427 m 1
 486 338 422 293 296 293 c 0
 287 293 278 293 268 294 c 1
 252 236 244 187 244 146 c 0
 244 102 269 65 312 65 c 0
 339 65 354 81 357 112 c 1
 351 109 345 107 338 107 c 0
 311 107 287 135 287 162 c 0
 287 193 335 222 373 222 c 0
 436 222 469 177 469 113 c 0
 469 41 388 -16 305 -16 c 0
 212 -16 156 51 156 146 c 0
 156 173 175 260 175 287 c 1
 142 276 103 232 103 206 c 0
 103 202 113 194 132 181 c 1
 123 176 115 173 106 173 c 0
 75 173 53 203 53 234 c 0
 53 281 89 316 160 341 c 1
 151 358 138 374 121 390 c 1
 185 403 249 438 312 493 c 1
 309 461 302 422 289 375 c 1
 367 377 444 377 486 427 c 1
EndSplineSet
EndChar

StartChar: u
Encoding: 117 117 82
Width: 450
Flags: W
LayerCount: 2
Fore
SplineSet
411 61 m 1
 326 1 l 2
 304 -19 288 -32 279 -39 c 1
 276 -18 275 10 275 46 c 1
 248 -11 212 -39 167 -39 c 0
 107 -39 64 24 64 97 c 0
 64 121 82 205 82 231 c 0
 82 270 72 283 24 308 c 1
 41 315 56 318 69 318 c 0
 105 318 134 297 158 256 c 0
 172 231 221 84 234 84 c 0
 264 84 279 97 279 123 c 0
 279 148 268 182 245 220 c 2
 191 308 l 1
 216 312 247 314 282 314 c 0
 300 314 366 312 385 312 c 1
 359 279 346 254 346 235 c 0
 346 183 384 69 411 61 c 1
EndSplineSet
EndChar

StartChar: v
Encoding: 118 118 83
Width: 445
Flags: W
LayerCount: 2
Fore
SplineSet
422 225 m 1
 372 189 260 25 246 -35 c 1
 225 -18 207 -9 192 -9 c 0
 179 -9 164 -16 148 -30 c 1
 148 -16 l 2
 148 39 81 147 0 230 c 1
 84 250 134 273 151 300 c 1
 151 223 174 90 199 90 c 0
 224 90 239 119 245 178 c 1
 245 235 l 2
 245 256 246 273 246 285 c 2
 246 310 l 1
 305 266 363 238 422 225 c 1
EndSplineSet
EndChar

StartChar: w
Encoding: 119 119 84
Width: 611
Flags: W
LayerCount: 2
Fore
SplineSet
602 266 m 1
 505 236 508 141 492 39 c 1
 479 -2 446 -23 391 -23 c 0
 332 -23 297 4 284 58 c 1
 284 -1 250 -30 182 -30 c 0
 135 -30 102 -13 84 21 c 0
 80 29 71 66 56 131 c 0
 45 177 27 208 0 224 c 1
 49 239 102 267 161 309 c 1
 138 262 126 219 126 178 c 0
 126 126 154 68 191 68 c 0
 221 68 236 94 236 146 c 0
 236 167 225 213 202 285 c 1
 207 285 250 290 332 299 c 1
 317 277 309 241 309 191 c 0
 309 122 326 87 361 87 c 0
 398 87 417 125 417 200 c 0
 417 232 414 268 407 309 c 1
 416 306 584 275 602 266 c 1
EndSplineSet
EndChar

StartChar: x
Encoding: 120 120 85
Width: 464
Flags: W
LayerCount: 2
Fore
SplineSet
422 -9 m 1
 389 -16 345 -19 290 -19 c 2
 251 -19 l 1
 275 -7 287 7 287 24 c 0
 287 53 265 79 222 102 c 1
 185 77 166 51 166 25 c 0
 166 12 172 1 185 -9 c 1
 180 -9 157 -19 148 -19 c 0
 133 -19 82 -11 67 -11 c 0
 53 -11 40 -14 28 -19 c 1
 46 -1 83 131 124 157 c 1
 67 192 38 228 38 265 c 2
 38 276 l 1
 66 276 158 279 185 279 c 1
 175 273 170 264 170 251 c 0
 170 230 181 209 202 188 c 1
 342 231 362 258 362 334 c 1
 382 311 392 288 392 265 c 0
 392 221 354 177 279 134 c 1
 348 91 395 44 422 -9 c 1
EndSplineSet
EndChar

StartChar: y
Encoding: 121 121 86
Width: 459
Flags: W
LayerCount: 2
Fore
SplineSet
365 102 m 2
 334 -106 l 1
 311 -177 261 -213 183 -213 c 0
 116 -213 82 -190 82 -145 c 0
 82 -102 122 -74 165 -74 c 0
 196 -74 212 -88 212 -116 c 0
 212 -129 207 -140 197 -150 c 1
 252 -146 282 -97 282 -42 c 0
 282 -23 279 -3 274 17 c 1
 262 -10 244 -23 219 -23 c 0
 169 -23 117 28 103 73 c 0
 85 128 54 177 14 219 c 1
 29 216 45 215 64 215 c 0
 113 215 159 221 202 234 c 1
 179 202 167 171 167 142 c 0
 167 108 188 77 215 77 c 0
 249 77 266 107 266 166 c 0
 266 190 262 218 254 251 c 1
 338 238 l 2
 371 233 400 231 424 231 c 0
 436 231 448 231 459 232 c 1
 409 221 376 177 365 102 c 2
EndSplineSet
EndChar

StartChar: z
Encoding: 122 122 87
Width: 366
Flags: W
LayerCount: 2
Fore
SplineSet
336 285 m 1
 308 260 147 136 147 98 c 0
 147 83 152 75 162 75 c 0
 185 75 265 135 284 167 c 1
 283 160 283 152 283 144 c 0
 283 103 293 49 313 -19 c 1
 242 -9 179 -4 123 -4 c 0
 68 -4 26 -9 -5 -19 c 1
 2 6 31 50 83 113 c 0
 133 174 158 206 158 207 c 0
 158 225 153 234 142 234 c 0
 123 234 79 207 51 176 c 1
 62 215 68 245 68 268 c 0
 68 285 66 303 61 322 c 1
 67 321 198 270 254 270 c 0
 280 270 307 275 336 285 c 1
EndSplineSet
EndChar

StartChar: exclamdown
Encoding: 161 161 88
Width: 313
Flags: W
LayerCount: 2
Fore
SplineSet
246 -30 m 0
 246 -74 215 -108 175 -108 c 0
 98 -108 60 -53 60 56 c 0
 60 144 79 243 117 352 c 1
 124 317 148 253 191 162 c 0
 228 84 246 20 246 -30 c 0
131 420 m 0
 76 420 29 453 29 505 c 0
 29 542 58 571 97 571 c 0
 149 571 209 532 209 478 c 0
 209 439 183 420 131 420 c 0
EndSplineSet
EndChar

StartChar: cent
Encoding: 162 162 89
Width: 492
Flags: W
LayerCount: 2
Fore
SplineSet
347 -30 m 1
 338 -27 327 -25 315 -25 c 0
 290 -25 263 -32 234 -47 c 1
 243 -24 251 1 257 28 c 1
 150 28 64 98 64 191 c 0
 64 293 148 375 248 386 c 1
 236 419 l 1
 262 438 284 465 302 498 c 1
 302 459 302 421 303 386 c 1
 333 381 353 369 363 348 c 1
 425 401 l 1
 414 358 400 314 382 269 c 1
 368 284 345 292 312 292 c 2
 305 292 l 1
 308 212 313 146 319 93 c 1
 359 94 388 104 405 121 c 1
 396 82 370 55 327 39 c 1
 333 10 340 -13 347 -30 c 1
238 263 m 0
 220 244 211 219 211 190 c 0
 211 148 230 113 269 100 c 1
 272 125 273 153 273 182 c 0
 273 218 271 252 268 283 c 1
 257 278 247 272 238 263 c 0
EndSplineSet
EndChar

StartChar: yen
Encoding: 165 165 90
Width: 866
Flags: W
LayerCount: 2
Fore
SplineSet
549 278 m 1
 639 302 l 1
 639 283 l 2
 638 273 637 265 637 258 c 2
 637 214 l 1
 600 227 565 236 532 239 c 0
 529 239 526 239 523 240 c 1
 519 215 517 188 517 161 c 2
 517 142 l 1
 553 147 599 156 654 170 c 1
 654 154 664 94 664 77 c 1
 621 92 573 102 520 107 c 1
 525 61 537 19 556 -20 c 1
 527 -13 495 -9 458 -9 c 0
 420 -9 385 -13 352 -20 c 1
 375 54 389 98 393 113 c 1
 348 112 310 108 281 101 c 1
 293 106 299 116 299 131 c 0
 299 140 294 161 294 170 c 1
 314 155 350 146 401 142 c 1
 410 181 415 215 416 244 c 1
 365 244 324 240 294 232 c 1
 307 237 314 247 314 263 c 0
 314 271 307 291 307 302 c 1
 331 284 367 273 416 270 c 1
 409 387 283 568 191 568 c 0
 165 568 148 550 139 514 c 1
 156 530 175 538 195 538 c 0
 221 538 234 525 234 500 c 0
 234 453 199 415 151 415 c 0
 91 415 48 465 48 525 c 0
 48 567 71 594 117 607 c 0
 127 608 176 614 264 622 c 0
 329 627 377 643 406 666 c 1
 428 510 441 438 471 365 c 1
 508 440 557 654 562 670 c 1
 628 617 693 579 758 554 c 1
 649 520 562 418 529 275 c 1
 549 278 l 1
EndSplineSet
EndChar

StartChar: brokenbar
Encoding: 166 166 91
Width: 155
Flags: W
LayerCount: 2
Fore
SplineSet
58 680 m 1
 106 680 l 1
 106 337 l 1
 58 337 l 1
 58 680 l 1
58 230 m 1
 106 230 l 1
 106 -129 l 1
 58 -129 l 1
 58 230 l 1
EndSplineSet
EndChar

StartChar: dieresis
Encoding: 168 168 92
Width: 400
Flags: W
LayerCount: 2
Fore
SplineSet
312 581 m 0
 344 581 375 559 375 528 c 0
 375 495 344 474 312 474 c 0
 276 474 246 495 246 528 c 0
 246 559 276 581 312 581 c 0
104 581 m 0
 136 581 167 559 167 528 c 0
 167 495 136 474 104 474 c 0
 69 474 39 495 39 528 c 0
 39 560 69 581 104 581 c 0
EndSplineSet
EndChar

StartChar: copyright
Encoding: 169 169 93
Width: 783
Flags: W
LayerCount: 2
Fore
SplineSet
510 299 m 0
 510 237 445 191 373 191 c 0
 278 191 219 263 219 377 c 0
 219 487 292 575 398 575 c 0
 455 575 503 545 503 490 c 0
 503 457 474 435 439 435 c 0
 406 435 390 447 390 471 c 0
 390 493 402 500 426 500 c 1
 437 492 l 1
 439 496 440 500 440 503 c 0
 440 522 416 534 400 534 c 0
 344 534 307 489 307 414 c 0
 307 324 353 261 426 261 c 0
 469 261 490 279 490 314 c 0
 490 323 488 333 485 343 c 1
 502 334 510 319 510 299 c 0
387 720 m 0
 574 720 730 566 730 378 c 0
 730 189 576 35 387 35 c 0
 198 35 45 189 45 378 c 0
 45 566 199 720 387 720 c 0
387 691 m 0
 218 691 75 550 75 378 c 0
 75 207 215 65 387 65 c 0
 559 65 701 207 701 378 c 0
 701 550 559 691 387 691 c 0
EndSplineSet
EndChar

StartChar: guillemotleft
Encoding: 171 171 94
Width: 456
Flags: W
LayerCount: 2
Fore
SplineSet
240 358 m 1
 116 300 l 1
 240 241 l 1
 240 168 l 1
 50 263 l 1
 50 334 l 1
 240 434 l 1
 240 358 l 1
421 358 m 1
 297 300 l 1
 421 241 l 1
 421 168 l 1
 231 263 l 1
 231 334 l 1
 421 434 l 1
 421 358 l 1
EndSplineSet
EndChar

StartChar: registered
Encoding: 174 174 95
Width: 783
Flags: W
LayerCount: 2
Fore
SplineSet
573 352 m 1
 584 332 590 307 590 276 c 0
 590 217 568 188 524 188 c 0
 465 188 449 209 441 321 c 0
 439 352 429 368 416 368 c 0
 401 368 386 340 386 308 c 0
 386 279 396 253 415 229 c 1
 407 229 l 2
 383 229 294 234 271 234 c 0
 254 234 238 233 224 231 c 1
 237 242 256 260 280 285 c 1
 300 313 322 403 322 441 c 0
 322 478 282 524 246 524 c 0
 232 524 220 517 209 504 c 1
 214 506 220 507 225 507 c 0
 250 507 263 497 263 476 c 0
 263 458 247 449 216 449 c 0
 176 449 137 479 137 518 c 0
 137 549 159 564 202 564 c 0
 223 564 297 553 319 553 c 0
 335 553 390 562 405 562 c 0
 485 562 553 518 553 451 c 0
 553 405 525 378 470 371 c 1
 506 370 524 358 524 334 c 0
 524 321 512 288 512 276 c 0
 512 268 516 264 525 264 c 0
 559 264 565 304 573 352 c 1
404 528 m 0
 389 528 381 518 381 498 c 0
 381 462 408 406 432 406 c 0
 448 406 456 420 456 448 c 0
 456 490 434 528 404 528 c 0
387 720 m 0
 574 720 730 566 730 378 c 0
 730 189 576 35 387 35 c 0
 198 35 45 189 45 378 c 0
 45 566 199 720 387 720 c 0
387 691 m 0
 218 691 75 550 75 378 c 0
 75 207 215 65 387 65 c 0
 559 65 701 207 701 378 c 0
 701 550 559 691 387 691 c 0
EndSplineSet
EndChar

StartChar: acute
Encoding: 180 180 96
Width: 231
Flags: W
LayerCount: 2
Fore
SplineSet
85 639 m 1
 219 639 l 1
 175 549 161 535 92 480 c 1
 23 480 l 1
 66 519 88 560 88 603 c 0
 88 612 87 624 85 639 c 1
EndSplineSet
EndChar

StartChar: paragraph
Encoding: 182 182 97
Width: 566
Flags: W
LayerCount: 2
Fore
SplineSet
553 707 m 1
 474 707 l 1
 474 -332 l 1
 431 -332 l 1
 431 707 l 1
 319 707 l 1
 319 -332 l 1
 276 -332 l 1
 276 289 l 1
 77 296 -11 369 -11 517 c 0
 -11 659 94 740 258 740 c 2
 553 740 l 1
 553 707 l 1
EndSplineSet
EndChar

StartChar: cedilla
Encoding: 184 184 98
Width: 215
Flags: W
LayerCount: 2
Fore
SplineSet
56 -165 m 1
 122 -59 l 1
 157 -59 l 1
 128 -106 l 1
 177 -117 202 -146 202 -193 c 0
 202 -260 137 -301 74 -301 c 0
 59 -301 40 -300 19 -297 c 1
 19 -272 l 1
 33 -273 43 -274 48 -274 c 0
 83 -274 119 -244 119 -208 c 0
 119 -179 102 -164 68 -164 c 0
 65 -164 61 -164 56 -165 c 1
EndSplineSet
EndChar

StartChar: guillemotright
Encoding: 187 187 99
Width: 471
Flags: W
LayerCount: 2
Fore
SplineSet
244 244 m 1
 368 303 l 1
 244 361 l 1
 244 434 l 1
 435 339 l 1
 435 268 l 1
 244 168 l 1
 244 244 l 1
64 244 m 1
 188 303 l 1
 64 361 l 1
 64 434 l 1
 254 339 l 1
 254 268 l 1
 64 168 l 1
 64 244 l 1
EndSplineSet
EndChar

StartChar: questiondown
Encoding: 191 191 100
Width: 569
Flags: W
LayerCount: 2
Fore
SplineSet
295 276 m 0
 295 297 287 307 270 307 c 0
 238 307 199 277 191 245 c 1
 191 263 l 2
 191 333 222 368 284 368 c 0
 348 368 404 324 404 269 c 0
 404 191 361 173 244 102 c 0
 206 76 187 42 187 -1 c 0
 187 -73 249 -117 317 -117 c 0
 360 -117 396 -76 402 -25 c 1
 387 -38 374 -44 361 -44 c 0
 338 -44 327 -27 327 7 c 0
 327 58 360 100 411 100 c 0
 465 100 503 55 503 -10 c 0
 503 -103 430 -170 319 -170 c 0
 170 -170 46 -80 46 54 c 0
 46 113 80 167 139 167 c 0
 199 167 295 223 295 276 c 0
319 532 m 0
 370 532 396 511 396 470 c 0
 396 431 366 398 327 398 c 0
 283 398 248 429 248 473 c 0
 248 512 272 532 319 532 c 0
EndSplineSet
EndChar

StartChar: Agrave
Encoding: 192 192 101
Width: 713
Flags: W
LayerCount: 2
Fore
SplineSet
423 109 m 0
 423 172 397 222 350 222 c 0
 305 222 271 183 271 138 c 0
 271 94 299 51 354 10 c 1
 278 10 164 5 13 -5 c 1
 48 71 100 142 143 186 c 0
 205 249 244 288 257 304 c 0
 298 356 319 404 319 449 c 0
 319 522 255 573 172 573 c 0
 120 573 94 558 94 528 c 1
 96 518 l 1
 106 522 117 524 128 524 c 0
 168 524 203 490 203 446 c 0
 203 407 176 387 123 387 c 0
 51 387 -3 448 -3 519 c 0
 -3 599 60 651 147 651 c 0
 208 651 415 631 476 631 c 0
 521 631 562 634 599 640 c 1
 578 624 556 473 556 386 c 0
 556 147 633 -2 765 -10 c 1
 719 -10 l 2
 606 -10 495 -7 382 2 c 1
 409 33 423 69 423 109 c 0
484 382 m 0
 484 424 455 486 423 486 c 0
 401 486 390 461 390 411 c 0
 390 354 408 326 443 326 c 0
 470 326 484 345 484 382 c 0
226 811 m 1
 263 802 290 797 307 797 c 0
 324 797 342 802 360 811 c 1
 365 751 385 698 421 652 c 1
 353 652 l 1
 302 687 260 740 226 811 c 1
EndSplineSet
EndChar

StartChar: Aacute
Encoding: 193 193 102
Width: 713
Flags: W
LayerCount: 2
Fore
SplineSet
423 109 m 0
 423 172 397 222 350 222 c 0
 305 222 271 183 271 138 c 0
 271 94 299 51 354 10 c 1
 278 10 164 5 13 -5 c 1
 48 71 100 142 143 186 c 0
 205 249 244 288 257 304 c 0
 298 356 319 404 319 449 c 0
 319 522 255 573 172 573 c 0
 120 573 94 558 94 528 c 1
 96 518 l 1
 106 522 117 524 128 524 c 0
 168 524 203 490 203 446 c 0
 203 407 176 387 123 387 c 0
 51 387 -3 448 -3 519 c 0
 -3 599 60 651 147 651 c 0
 208 651 415 631 476 631 c 0
 521 631 562 634 599 640 c 1
 578 624 556 473 556 386 c 0
 556 147 633 -2 765 -10 c 1
 719 -10 l 2
 606 -10 495 -7 382 2 c 1
 409 33 423 69 423 109 c 0
484 382 m 0
 484 424 455 486 423 486 c 0
 401 486 390 461 390 411 c 0
 390 354 408 326 443 326 c 0
 470 326 484 345 484 382 c 0
346 812 m 1
 480 812 l 1
 436 722 422 708 353 653 c 1
 284 653 l 1
 327 692 349 733 349 776 c 0
 349 785 348 797 346 812 c 1
EndSplineSet
EndChar

StartChar: Acircumflex
Encoding: 194 194 103
Width: 713
Flags: W
LayerCount: 2
Fore
SplineSet
423 109 m 0
 423 172 397 222 350 222 c 0
 305 222 271 183 271 138 c 0
 271 94 299 51 354 10 c 1
 278 10 164 5 13 -5 c 1
 48 71 100 142 143 186 c 0
 205 249 244 288 257 304 c 0
 298 356 319 404 319 449 c 0
 319 522 255 573 172 573 c 0
 120 573 94 558 94 528 c 1
 96 518 l 1
 106 522 117 524 128 524 c 0
 168 524 203 490 203 446 c 0
 203 407 176 387 123 387 c 0
 51 387 -3 448 -3 519 c 0
 -3 599 60 651 147 651 c 0
 208 651 415 631 476 631 c 0
 521 631 562 634 599 640 c 1
 578 624 556 473 556 386 c 0
 556 147 633 -2 765 -10 c 1
 719 -10 l 2
 606 -10 495 -7 382 2 c 1
 409 33 423 69 423 109 c 0
484 382 m 0
 484 424 455 486 423 486 c 0
 401 486 390 461 390 411 c 0
 390 354 408 326 443 326 c 0
 470 326 484 345 484 382 c 0
297 810 m 1
 324 797 344 791 357 791 c 0
 371 791 387 797 406 810 c 1
 416 758 454 712 520 673 c 1
 441 673 l 1
 395 690 365 712 351 741 c 1
 332 710 303 687 263 673 c 1
 184 673 l 1
 265 735 287 760 297 810 c 1
EndSplineSet
EndChar

StartChar: Atilde
Encoding: 195 195 104
Width: 713
Flags: W
LayerCount: 2
Fore
SplineSet
423 109 m 0
 423 172 397 222 350 222 c 0
 305 222 271 183 271 138 c 0
 271 94 299 51 354 10 c 1
 278 10 164 5 13 -5 c 1
 48 71 100 142 143 186 c 0
 205 249 244 288 257 304 c 0
 298 356 319 404 319 449 c 0
 319 522 255 573 172 573 c 0
 120 573 94 558 94 528 c 1
 96 518 l 1
 106 522 117 524 128 524 c 0
 168 524 203 490 203 446 c 0
 203 407 176 387 123 387 c 0
 51 387 -3 448 -3 519 c 0
 -3 599 60 651 147 651 c 0
 208 651 415 631 476 631 c 0
 521 631 562 634 599 640 c 1
 578 624 556 473 556 386 c 0
 556 147 633 -2 765 -10 c 1
 719 -10 l 2
 606 -10 495 -7 382 2 c 1
 409 33 423 69 423 109 c 0
484 382 m 0
 484 424 455 486 423 486 c 0
 401 486 390 461 390 411 c 0
 390 354 408 326 443 326 c 0
 470 326 484 345 484 382 c 0
302 681 m 1
 293 690 277 694 254 694 c 0
 229 694 206 690 185 681 c 1
 187 789 210 809 297 809 c 0
 317 809 416 726 424 726 c 0
 431 726 435 734 435 749 c 0
 435 762 432 782 425 809 c 1
 436 800 448 795 460 795 c 0
 471 795 485 800 504 809 c 1
 504 704 478 680 391 678 c 0
 384 678 304 748 295 748 c 0
 292 748 290 744 290 735 c 0
 290 725 294 707 302 681 c 1
EndSplineSet
EndChar

StartChar: Adieresis
Encoding: 196 196 105
Width: 713
Flags: W
LayerCount: 2
Fore
SplineSet
423 109 m 0
 423 172 397 222 350 222 c 0
 305 222 271 183 271 138 c 0
 271 94 299 51 354 10 c 1
 278 10 164 5 13 -5 c 1
 48 71 100 142 143 186 c 0
 205 249 244 288 257 304 c 0
 298 356 319 404 319 449 c 0
 319 522 255 573 172 573 c 0
 120 573 94 558 94 528 c 1
 96 518 l 1
 106 522 117 524 128 524 c 0
 168 524 203 490 203 446 c 0
 203 407 176 387 123 387 c 0
 51 387 -3 448 -3 519 c 0
 -3 599 60 651 147 651 c 0
 208 651 415 631 476 631 c 0
 521 631 562 634 599 640 c 1
 578 624 556 473 556 386 c 0
 556 147 633 -2 765 -10 c 1
 719 -10 l 2
 606 -10 495 -7 382 2 c 1
 409 33 423 69 423 109 c 0
484 382 m 0
 484 424 455 486 423 486 c 0
 401 486 390 461 390 411 c 0
 390 354 408 326 443 326 c 0
 470 326 484 345 484 382 c 0
456 783 m 0
 488 783 519 761 519 730 c 0
 519 697 488 676 456 676 c 0
 420 676 390 697 390 730 c 0
 390 761 420 783 456 783 c 0
248 783 m 0
 280 783 311 761 311 730 c 0
 311 697 280 676 248 676 c 0
 213 676 183 697 183 730 c 0
 183 762 213 783 248 783 c 0
EndSplineSet
EndChar

StartChar: Aring
Encoding: 197 197 106
Width: 713
Flags: W
LayerCount: 2
Fore
SplineSet
423 109 m 0
 423 172 397 222 350 222 c 0
 305 222 271 183 271 138 c 0
 271 94 299 51 354 10 c 1
 278 10 164 5 13 -5 c 1
 48 71 100 142 143 186 c 0
 205 249 244 288 257 304 c 0
 298 356 319 404 319 449 c 0
 319 522 255 573 172 573 c 0
 120 573 94 558 94 528 c 1
 96 518 l 1
 106 522 117 524 128 524 c 0
 168 524 203 490 203 446 c 0
 203 407 176 387 123 387 c 0
 51 387 -3 448 -3 519 c 0
 -3 599 60 651 147 651 c 0
 208 651 415 631 476 631 c 0
 521 631 562 634 599 640 c 1
 578 624 556 473 556 386 c 0
 556 147 633 -2 765 -10 c 1
 719 -10 l 2
 606 -10 495 -7 382 2 c 1
 409 33 423 69 423 109 c 0
484 382 m 0
 484 424 455 486 423 486 c 0
 401 486 390 461 390 411 c 0
 390 354 408 326 443 326 c 0
 470 326 484 345 484 382 c 0
362 809 m 0
 423 809 476 775 476 726 c 0
 476 679 425 643 362 643 c 0
 302 643 248 679 248 726 c 0
 248 775 301 809 362 809 c 0
362 779 m 0
 322 779 289 757 289 726 c 0
 289 695 322 674 362 674 c 0
 399 674 434 697 434 726 c 0
 434 757 399 779 362 779 c 0
EndSplineSet
EndChar

StartChar: AE
Encoding: 198 198 107
Width: 973
Flags: W
LayerCount: 2
Fore
SplineSet
372 2 m 1
 403 54 l 2
 410 71 414 91 414 112 c 0
 414 170 386 222 341 222 c 0
 289 222 263 194 263 138 c 0
 263 94 291 51 346 10 c 1
 269 10 156 5 5 -5 c 1
 45 64 91 142 134 186 c 0
 196 249 235 287 248 304 c 0
 289 356 310 404 310 449 c 0
 310 523 246 573 162 573 c 0
 110 573 84 558 84 528 c 1
 87 518 l 1
 98 522 108 524 118 524 c 0
 159 524 194 490 194 446 c 0
 194 407 167 387 113 387 c 0
 43 387 -13 446 -13 519 c 0
 -13 603 51 651 138 651 c 0
 174 651 229 647 302 641 c 0
 360 636 521 603 663 603 c 0
 743 603 897 643 918 678 c 1
 918 667 l 2
 918 633 902 542 902 506 c 0
 902 500 902 494 903 489 c 1
 799 516 729 529 694 529 c 0
 609 529 546 495 546 445 c 0
 546 410 568 393 613 393 c 0
 632 393 654 399 679 412 c 2
 743 445 l 1
 734 430 729 411 729 390 c 0
 729 362 742 283 744 265 c 1
 718 290 687 303 652 303 c 0
 594 303 529 263 529 216 c 0
 529 167 588 143 705 143 c 0
 786 143 844 156 879 183 c 1
 879 138 881 71 884 -19 c 1
 864 16 816 33 739 33 c 0
 689 33 445 2 383 2 c 2
 372 2 l 1
475 382 m 0
 475 451 455 486 415 486 c 0
 392 486 381 463 381 411 c 0
 381 354 399 326 435 326 c 0
 462 326 475 345 475 382 c 0
EndSplineSet
EndChar

StartChar: Ccedilla
Encoding: 199 199 108
Width: 696
Flags: W
LayerCount: 2
Fore
SplineSet
598 172 m 0
 598 62 475 -18 344 -18 c 0
 167 -18 56 112 56 312 c 0
 56 508 195 660 390 660 c 0
 501 660 583 603 583 510 c 0
 583 450 528 412 465 412 c 0
 412 412 373 438 373 478 c 0
 373 514 396 529 442 529 c 1
 461 514 l 1
 464 521 466 527 466 532 c 0
 466 563 425 588 391 588 c 0
 287 588 219 501 219 376 c 0
 219 220 309 105 441 105 c 0
 508 105 562 142 562 200 c 0
 562 216 558 233 549 250 c 1
 582 234 598 208 598 172 c 0
309 -83 m 1
 375 23 l 1
 410 23 l 1
 381 -24 l 1
 430 -35 455 -64 455 -111 c 0
 455 -178 390 -219 327 -219 c 0
 312 -219 293 -218 272 -215 c 1
 272 -190 l 1
 286 -191 296 -192 301 -192 c 0
 336 -192 372 -162 372 -126 c 0
 372 -97 355 -82 321 -82 c 0
 318 -82 314 -82 309 -83 c 1
EndSplineSet
EndChar

StartChar: Egrave
Encoding: 200 200 109
Width: 751
Flags: W
LayerCount: 2
Fore
SplineSet
731 663 m 1
 733 650 l 1
 733 642 l 2
 733 609 715 515 715 482 c 2
 715 475 l 1
 612 501 542 514 506 514 c 0
 421 514 359 478 359 431 c 0
 359 396 382 378 427 378 c 0
 444 378 467 384 494 398 c 2
 555 430 l 1
 546 415 542 396 542 375 c 0
 542 349 557 269 559 250 c 1
 532 275 501 288 465 288 c 0
 407 288 342 249 342 201 c 0
 342 152 401 128 519 128 c 0
 600 128 657 141 692 168 c 1
 692 124 694 57 697 -33 c 1
 668 18 569 43 401 43 c 0
 270 43 90 18 20 -10 c 1
 44 64 173 214 227 299 c 0
 265 359 284 408 284 441 c 0
 284 498 231 580 172 580 c 0
 149 580 135 567 129 541 c 1
 169 541 210 517 210 478 c 0
 210 432 188 409 143 409 c 0
 88 409 41 455 41 542 c 0
 41 613 80 649 158 649 c 0
 220 649 415 588 476 588 c 0
 553 588 709 628 731 663 c 1
271 809 m 1
 308 800 335 795 352 795 c 0
 369 795 387 800 405 809 c 1
 410 749 430 696 466 650 c 1
 398 650 l 1
 347 685 305 738 271 809 c 1
EndSplineSet
EndChar

StartChar: Eacute
Encoding: 201 201 110
Width: 751
Flags: W
LayerCount: 2
Fore
SplineSet
731 663 m 1
 733 650 l 1
 733 642 l 2
 733 609 715 515 715 482 c 2
 715 475 l 1
 612 501 542 514 506 514 c 0
 421 514 359 478 359 431 c 0
 359 396 382 378 427 378 c 0
 444 378 467 384 494 398 c 2
 555 430 l 1
 546 415 542 396 542 375 c 0
 542 349 557 269 559 250 c 1
 532 275 501 288 465 288 c 0
 407 288 342 249 342 201 c 0
 342 152 401 128 519 128 c 0
 600 128 657 141 692 168 c 1
 692 124 694 57 697 -33 c 1
 668 18 569 43 401 43 c 0
 270 43 90 18 20 -10 c 1
 44 64 173 214 227 299 c 0
 265 359 284 408 284 441 c 0
 284 498 231 580 172 580 c 0
 149 580 135 567 129 541 c 1
 169 541 210 517 210 478 c 0
 210 432 188 409 143 409 c 0
 88 409 41 455 41 542 c 0
 41 613 80 649 158 649 c 0
 220 649 415 588 476 588 c 0
 553 588 709 628 731 663 c 1
334 816 m 1
 468 816 l 1
 424 726 410 712 341 657 c 1
 272 657 l 1
 315 696 337 737 337 780 c 0
 337 789 336 801 334 816 c 1
EndSplineSet
EndChar

StartChar: Ecircumflex
Encoding: 202 202 111
Width: 751
Flags: W
LayerCount: 2
Fore
SplineSet
731 663 m 1
 733 650 l 1
 733 642 l 2
 733 609 715 515 715 482 c 2
 715 475 l 1
 612 501 542 514 506 514 c 0
 421 514 359 478 359 431 c 0
 359 396 382 378 427 378 c 0
 444 378 467 384 494 398 c 2
 555 430 l 1
 546 415 542 396 542 375 c 0
 542 349 557 269 559 250 c 1
 532 275 501 288 465 288 c 0
 407 288 342 249 342 201 c 0
 342 152 401 128 519 128 c 0
 600 128 657 141 692 168 c 1
 692 124 694 57 697 -33 c 1
 668 18 569 43 401 43 c 0
 270 43 90 18 20 -10 c 1
 44 64 173 214 227 299 c 0
 265 359 284 408 284 441 c 0
 284 498 231 580 172 580 c 0
 149 580 135 567 129 541 c 1
 169 541 210 517 210 478 c 0
 210 432 188 409 143 409 c 0
 88 409 41 455 41 542 c 0
 41 613 80 649 158 649 c 0
 220 649 415 588 476 588 c 0
 553 588 709 628 731 663 c 1
328 812 m 1
 355 799 375 793 388 793 c 0
 402 793 418 799 437 812 c 1
 447 760 485 714 551 675 c 1
 472 675 l 1
 426 692 396 714 382 743 c 1
 363 712 334 689 294 675 c 1
 215 675 l 1
 296 737 318 762 328 812 c 1
EndSplineSet
EndChar

StartChar: Edieresis
Encoding: 203 203 112
Width: 751
Flags: W
LayerCount: 2
Fore
SplineSet
731 663 m 1
 733 650 l 1
 733 642 l 2
 733 609 715 515 715 482 c 2
 715 475 l 1
 612 501 542 514 506 514 c 0
 421 514 359 478 359 431 c 0
 359 396 382 378 427 378 c 0
 444 378 467 384 494 398 c 2
 555 430 l 1
 546 415 542 396 542 375 c 0
 542 349 557 269 559 250 c 1
 532 275 501 288 465 288 c 0
 407 288 342 249 342 201 c 0
 342 152 401 128 519 128 c 0
 600 128 657 141 692 168 c 1
 692 124 694 57 697 -33 c 1
 668 18 569 43 401 43 c 0
 270 43 90 18 20 -10 c 1
 44 64 173 214 227 299 c 0
 265 359 284 408 284 441 c 0
 284 498 231 580 172 580 c 0
 149 580 135 567 129 541 c 1
 169 541 210 517 210 478 c 0
 210 432 188 409 143 409 c 0
 88 409 41 455 41 542 c 0
 41 613 80 649 158 649 c 0
 220 649 415 588 476 588 c 0
 553 588 709 628 731 663 c 1
472 790 m 0
 504 790 535 768 535 737 c 0
 535 704 504 683 472 683 c 0
 436 683 406 704 406 737 c 0
 406 768 436 790 472 790 c 0
264 790 m 0
 296 790 327 768 327 737 c 0
 327 704 296 683 264 683 c 0
 229 683 199 704 199 737 c 0
 199 769 229 790 264 790 c 0
EndSplineSet
EndChar

StartChar: Igrave
Encoding: 204 204 113
Width: 395
Flags: W
LayerCount: 2
Fore
SplineSet
376 -18 m 1
 321 -9 268 -4 219 -4 c 0
 167 -4 111 -9 50 -20 c 1
 149 147 198 309 198 464 c 0
 198 520 159 571 112 571 c 0
 83 571 63 552 53 514 c 1
 70 526 88 532 108 532 c 0
 133 532 146 520 146 497 c 0
 146 449 113 411 68 411 c 0
 10 411 -39 466 -39 525 c 0
 -39 569 -17 597 28 608 c 0
 35 612 83 614 174 620 c 0
 240 624 289 640 321 666 c 1
 324 643 325 621 325 600 c 0
 325 535 253 328 253 266 c 0
 253 189 294 95 376 -18 c 1
47 809 m 1
 84 800 111 795 128 795 c 0
 145 795 163 800 181 809 c 1
 186 749 206 696 242 650 c 1
 174 650 l 1
 123 685 81 738 47 809 c 1
EndSplineSet
EndChar

StartChar: Iacute
Encoding: 205 205 114
Width: 395
Flags: W
LayerCount: 2
Fore
SplineSet
384 -18 m 1
 329 -9 276 -4 227 -4 c 0
 175 -4 119 -9 58 -20 c 1
 157 147 206 309 206 464 c 0
 206 520 167 571 120 571 c 0
 91 571 71 552 61 514 c 1
 78 526 96 532 116 532 c 0
 141 532 154 520 154 497 c 0
 154 449 121 411 76 411 c 0
 18 411 -31 466 -31 525 c 0
 -31 569 -9 597 36 608 c 0
 43 612 91 614 182 620 c 0
 248 624 297 640 329 666 c 1
 332 643 333 621 333 600 c 0
 333 535 261 328 261 266 c 0
 261 189 302 95 384 -18 c 1
146 816 m 1
 280 816 l 1
 236 726 222 712 153 657 c 1
 84 657 l 1
 127 696 149 737 149 780 c 0
 149 789 148 801 146 816 c 1
EndSplineSet
EndChar

StartChar: Icircumflex
Encoding: 206 206 115
Width: 395
Flags: W
LayerCount: 2
Fore
SplineSet
384 -18 m 1
 329 -9 276 -4 227 -4 c 0
 175 -4 119 -9 58 -20 c 1
 157 147 206 309 206 464 c 0
 206 520 167 571 120 571 c 0
 91 571 71 552 61 514 c 1
 78 526 96 532 116 532 c 0
 141 532 154 520 154 497 c 0
 154 449 121 411 76 411 c 0
 18 411 -31 466 -31 525 c 0
 -31 569 -9 597 36 608 c 0
 43 612 91 614 182 620 c 0
 248 624 297 640 329 666 c 1
 332 643 333 621 333 600 c 0
 333 535 261 328 261 266 c 0
 261 189 302 95 384 -18 c 1
147 816 m 1
 174 803 194 797 207 797 c 0
 221 797 237 803 256 816 c 1
 266 764 304 718 370 679 c 1
 291 679 l 1
 245 696 215 718 201 747 c 1
 182 716 153 693 113 679 c 1
 34 679 l 1
 115 741 137 766 147 816 c 1
EndSplineSet
EndChar

StartChar: Idieresis
Encoding: 207 207 116
Width: 395
Flags: W
LayerCount: 2
Fore
SplineSet
381 -18 m 1
 326 -9 273 -4 224 -4 c 0
 172 -4 116 -9 55 -20 c 1
 154 147 203 309 203 464 c 0
 203 520 164 571 117 571 c 0
 88 571 68 552 58 514 c 1
 75 526 93 532 113 532 c 0
 138 532 151 520 151 497 c 0
 151 449 118 411 73 411 c 0
 15 411 -34 466 -34 525 c 0
 -34 569 -12 597 33 608 c 0
 40 612 88 614 179 620 c 0
 245 624 294 640 326 666 c 1
 329 643 330 621 330 600 c 0
 330 535 258 328 258 266 c 0
 258 189 299 95 381 -18 c 1
298 791 m 0
 330 791 361 769 361 738 c 0
 361 705 330 684 298 684 c 0
 262 684 232 705 232 738 c 0
 232 769 262 791 298 791 c 0
90 791 m 0
 122 791 153 769 153 738 c 0
 153 705 122 684 90 684 c 0
 55 684 25 705 25 738 c 0
 25 770 55 791 90 791 c 0
EndSplineSet
EndChar

StartChar: Eth
Encoding: 208 208 117
Width: 753
Flags: W
LayerCount: 2
Fore
SplineSet
739 302 m 0
 739 118 646 6 497 6 c 0
 446 6 270 43 219 43 c 0
 162 43 118 30 87 4 c 1
 89 43 110 76 151 99 c 0
 212 132 247 153 260 166 c 0
 289 196 307 241 314 300 c 1
 274 299 236 293 199 282 c 1
 210 295 217 308 219 323 c 1
 218 322 217 338 216 371 c 1
 236 349 270 336 317 333 c 1
 318 342 318 352 318 361 c 0
 318 475 265 597 206 597 c 0
 185 597 166 586 148 563 c 1
 199 554 225 537 225 513 c 0
 225 476 170 449 128 449 c 0
 69 449 33 496 33 567 c 0
 33 628 72 659 151 659 c 0
 186 659 306 639 341 639 c 0
 375 639 487 654 522 654 c 0
 647 654 739 484 739 302 c 0
512 256 m 1
 480 272 446 284 410 291 c 1
 413 172 433 112 470 112 c 0
 539 112 573 176 573 303 c 0
 573 434 521 558 454 558 c 0
 435 558 414 469 410 341 c 1
 439 348 470 358 503 371 c 1
 503 352 512 278 512 256 c 1
EndSplineSet
EndChar

StartChar: Ntilde
Encoding: 209 209 118
Width: 759
Flags: W
LayerCount: 2
Fore
SplineSet
738 6 m 1
 713 -3 484 -25 453 -33 c 1
 453 -23 l 2
 453 51 441 137 416 235 c 0
 382 368 344 434 299 434 c 1
 290 432 l 1
 269 358 258 299 258 254 c 0
 258 169 276 129 380 -18 c 1
 325 -9 273 -4 224 -4 c 0
 171 -4 114 -9 53 -20 c 1
 152 147 202 309 202 464 c 0
 202 512 167 571 114 571 c 0
 85 571 66 552 58 514 c 1
 74 526 92 532 111 532 c 0
 136 532 149 520 149 497 c 0
 149 452 117 411 72 411 c 0
 14 411 -35 468 -35 525 c 0
 -35 568 -12 596 33 607 c 0
 40 610 90 613 181 621 c 0
 246 626 293 642 323 666 c 1
 323 652 l 2
 323 648 322 643 322 639 c 0
 322 593 337 542 367 486 c 1
 402 431 515 257 531 162 c 1
 540 193 544 226 544 261 c 0
 544 374 496 504 400 651 c 1
 708 651 l 1
 694 648 676 615 654 552 c 0
 614 436 608 386 608 312 c 0
 608 181 651 79 738 6 c 1
356 691 m 1
 347 700 331 704 308 704 c 0
 283 704 260 700 239 691 c 1
 241 799 264 819 351 819 c 0
 371 819 470 736 478 736 c 0
 485 736 489 744 489 759 c 0
 489 772 486 792 479 819 c 1
 490 810 502 805 514 805 c 0
 525 805 539 810 558 819 c 1
 558 714 532 690 445 688 c 0
 438 688 358 758 349 758 c 0
 346 758 344 754 344 745 c 0
 344 735 348 717 356 691 c 1
EndSplineSet
EndChar

StartChar: Ograve
Encoding: 210 210 119
Width: 640
Flags: W
LayerCount: 2
Fore
SplineSet
323 676 m 0
 469 676 578 486 578 288 c 0
 578 93 481 -27 305 -27 c 0
 147 -27 44 111 44 305 c 0
 44 511 158 676 323 676 c 0
418 440 m 1
 406 395 380 372 340 372 c 0
 295 372 250 405 250 448 c 0
 250 471 268 501 288 508 c 1
 291 468 l 1
 302 461 313 458 322 458 c 0
 352 458 381 492 381 532 c 0
 381 579 345 603 298 603 c 0
 233 603 192 512 192 387 c 0
 192 240 246 95 306 95 c 0
 382 95 430 187 430 333 c 0
 430 376 426 411 418 440 c 1
237 811 m 1
 274 802 301 797 318 797 c 0
 335 797 353 802 371 811 c 1
 376 751 396 698 432 652 c 1
 364 652 l 1
 313 687 271 740 237 811 c 1
EndSplineSet
EndChar

StartChar: Oacute
Encoding: 211 211 120
Width: 640
Flags: W
LayerCount: 2
Fore
SplineSet
323 676 m 0
 469 676 578 486 578 288 c 0
 578 93 481 -27 305 -27 c 0
 147 -27 44 111 44 305 c 0
 44 511 158 676 323 676 c 0
418 440 m 1
 406 395 380 372 340 372 c 0
 295 372 250 405 250 448 c 0
 250 471 268 501 288 508 c 1
 291 468 l 1
 302 461 313 458 322 458 c 0
 352 458 381 492 381 532 c 0
 381 579 345 603 298 603 c 0
 233 603 192 512 192 387 c 0
 192 240 246 95 306 95 c 0
 382 95 430 187 430 333 c 0
 430 376 426 411 418 440 c 1
304 819 m 1
 438 819 l 1
 394 729 380 715 311 660 c 1
 242 660 l 1
 285 699 307 740 307 783 c 0
 307 792 306 804 304 819 c 1
EndSplineSet
EndChar

StartChar: Ocircumflex
Encoding: 212 212 121
Width: 640
Flags: W
LayerCount: 2
Fore
SplineSet
323 676 m 0
 469 676 578 486 578 288 c 0
 578 93 481 -27 305 -27 c 0
 147 -27 44 111 44 305 c 0
 44 511 158 676 323 676 c 0
418 440 m 1
 406 395 380 372 340 372 c 0
 295 372 250 405 250 448 c 0
 250 471 268 501 288 508 c 1
 291 468 l 1
 302 461 313 458 322 458 c 0
 352 458 381 492 381 532 c 0
 381 579 345 603 298 603 c 0
 233 603 192 512 192 387 c 0
 192 240 246 95 306 95 c 0
 382 95 430 187 430 333 c 0
 430 376 426 411 418 440 c 1
254 810 m 1
 281 797 301 791 314 791 c 0
 328 791 344 797 363 810 c 1
 373 758 411 712 477 673 c 1
 398 673 l 1
 352 690 322 712 308 741 c 1
 289 710 260 687 220 673 c 1
 141 673 l 1
 222 735 244 760 254 810 c 1
EndSplineSet
EndChar

StartChar: Otilde
Encoding: 213 213 122
Width: 640
Flags: W
LayerCount: 2
Fore
SplineSet
323 676 m 0
 469 676 578 486 578 288 c 0
 578 93 481 -27 305 -27 c 0
 147 -27 44 111 44 305 c 0
 44 511 158 676 323 676 c 0
418 440 m 1
 406 395 380 372 340 372 c 0
 295 372 250 405 250 448 c 0
 250 471 268 501 288 508 c 1
 291 468 l 1
 302 461 313 458 322 458 c 0
 352 458 381 492 381 532 c 0
 381 579 345 603 298 603 c 0
 233 603 192 512 192 387 c 0
 192 240 246 95 306 95 c 0
 382 95 430 187 430 333 c 0
 430 376 426 411 418 440 c 1
274 690 m 1
 265 699 249 703 226 703 c 0
 201 703 178 699 157 690 c 1
 159 798 182 818 269 818 c 0
 289 818 388 735 396 735 c 0
 403 735 407 743 407 758 c 0
 407 771 404 791 397 818 c 1
 408 809 420 804 432 804 c 0
 443 804 457 809 476 818 c 1
 476 713 450 689 363 687 c 0
 356 687 276 757 267 757 c 0
 264 757 262 753 262 744 c 0
 262 734 266 716 274 690 c 1
EndSplineSet
EndChar

StartChar: Odieresis
Encoding: 214 214 123
Width: 640
Flags: W
LayerCount: 2
Fore
SplineSet
323 676 m 0
 469 676 578 486 578 288 c 0
 578 93 481 -27 305 -27 c 0
 147 -27 44 111 44 305 c 0
 44 511 158 676 323 676 c 0
418 440 m 1
 406 395 380 372 340 372 c 0
 295 372 250 405 250 448 c 0
 250 471 268 501 288 508 c 1
 291 468 l 1
 302 461 313 458 322 458 c 0
 352 458 381 492 381 532 c 0
 381 579 345 603 298 603 c 0
 233 603 192 512 192 387 c 0
 192 240 246 95 306 95 c 0
 382 95 430 187 430 333 c 0
 430 376 426 411 418 440 c 1
425 791 m 0
 457 791 488 769 488 738 c 0
 488 705 457 684 425 684 c 0
 389 684 359 705 359 738 c 0
 359 769 389 791 425 791 c 0
217 791 m 0
 249 791 280 769 280 738 c 0
 280 705 249 684 217 684 c 0
 182 684 152 705 152 738 c 0
 152 770 182 791 217 791 c 0
EndSplineSet
EndChar

StartChar: multiply
Encoding: 215 215 124
Width: 558
Flags: W
LayerCount: 2
Fore
SplineSet
56 93 m 1
 21 127 l 1
 234 338 l 1
 23 547 l 1
 58 582 l 1
 268 372 l 1
 478 582 l 1
 510 548 l 1
 302 338 l 1
 512 127 l 1
 479 93 l 1
 268 304 l 1
 56 93 l 1
EndSplineSet
EndChar

StartChar: Oslash
Encoding: 216 216 125
Width: 640
Flags: W
LayerCount: 2
Fore
SplineSet
634 615 m 1
 598 599 564 576 531 546 c 1
 537 536 l 1
 578 459 598 377 598 288 c 0
 598 95 499 -27 323 -27 c 0
 290 -27 260 -22 232 -12 c 1
 205 -65 181 -99 162 -116 c 1
 141 -64 99 -5 35 60 c 1
 64 60 92 68 121 83 c 1
 82 144 63 218 63 305 c 0
 63 508 178 676 343 676 c 0
 378 676 410 667 439 650 c 1
 446 686 449 719 450 748 c 1
 499 696 561 652 634 615 c 1
299 393 m 0
 279 408 269 427 269 448 c 0
 269 471 287 501 308 508 c 1
 312 468 l 1
 321 461 331 458 342 458 c 0
 372 458 401 494 401 532 c 0
 401 579 363 603 318 603 c 0
 251 603 212 511 212 387 c 0
 212 332 220 276 235 219 c 2
 241 197 l 1
 259 222 l 2
 291 266 317 318 344 373 c 1
 327 375 312 382 299 393 c 0
414 394 m 0
 382 337 339 243 285 112 c 1
 297 101 310 95 324 95 c 0
 404 95 448 185 448 333 c 0
 448 373 445 407 440 435 c 1
 434 426 l 2
 429 413 423 402 414 394 c 0
EndSplineSet
EndChar

StartChar: Ugrave
Encoding: 217 217 126
Width: 641
Flags: W
LayerCount: 2
Fore
SplineSet
626 6 m 1
 411 -42 l 1
 422 -6 426 27 426 61 c 2
 424 88 l 1
 378 7 319 -33 246 -33 c 0
 155 -33 79 41 79 133 c 0
 79 197 133 401 133 464 c 0
 133 519 89 571 45 571 c 0
 16 571 -3 552 -13 514 c 1
 4 526 22 532 41 532 c 0
 67 532 80 520 80 495 c 0
 80 448 49 411 4 411 c 0
 -56 411 -104 466 -104 525 c 0
 -104 567 -81 594 -35 607 c 0
 -26 608 23 614 113 622 c 0
 179 627 226 643 255 666 c 1
 257 649 258 631 258 612 c 0
 258 548 226 334 226 270 c 0
 226 185 260 109 319 109 c 0
 375 109 403 221 403 446 c 0
 403 494 367 622 363 651 c 1
 418 632 483 622 556 622 c 1
 507 553 482 473 482 381 c 0
 482 241 530 116 626 6 c 1
235 816 m 1
 272 807 299 802 316 802 c 0
 333 802 351 807 369 816 c 1
 374 756 394 703 430 657 c 1
 362 657 l 1
 311 692 269 745 235 816 c 1
EndSplineSet
EndChar

StartChar: Uacute
Encoding: 218 218 127
Width: 641
Flags: W
LayerCount: 2
Fore
SplineSet
626 6 m 1
 411 -42 l 1
 422 -6 426 27 426 61 c 2
 424 88 l 1
 378 7 319 -33 246 -33 c 0
 155 -33 79 41 79 133 c 0
 79 197 133 401 133 464 c 0
 133 519 89 571 45 571 c 0
 16 571 -3 552 -13 514 c 1
 4 526 22 532 41 532 c 0
 67 532 80 520 80 495 c 0
 80 448 49 411 4 411 c 0
 -56 411 -104 466 -104 525 c 0
 -104 567 -81 594 -35 607 c 0
 -26 608 23 614 113 622 c 0
 179 627 226 643 255 666 c 1
 257 649 258 631 258 612 c 0
 258 548 226 334 226 270 c 0
 226 185 260 109 319 109 c 0
 375 109 403 221 403 446 c 0
 403 494 367 622 363 651 c 1
 418 632 483 622 556 622 c 1
 507 553 482 473 482 381 c 0
 482 241 530 116 626 6 c 1
270 812 m 1
 404 812 l 1
 360 722 346 708 277 653 c 1
 208 653 l 1
 251 692 273 733 273 776 c 0
 273 785 272 797 270 812 c 1
EndSplineSet
EndChar

StartChar: Ucircumflex
Encoding: 219 219 128
Width: 641
Flags: W
LayerCount: 2
Fore
SplineSet
626 6 m 1
 411 -42 l 1
 422 -6 426 27 426 61 c 2
 424 88 l 1
 378 7 319 -33 246 -33 c 0
 155 -33 79 41 79 133 c 0
 79 197 133 401 133 464 c 0
 133 519 89 571 45 571 c 0
 16 571 -3 552 -13 514 c 1
 4 526 22 532 41 532 c 0
 67 532 80 520 80 495 c 0
 80 448 49 411 4 411 c 0
 -56 411 -104 466 -104 525 c 0
 -104 567 -81 594 -35 607 c 0
 -26 608 23 614 113 622 c 0
 179 627 226 643 255 666 c 1
 257 649 258 631 258 612 c 0
 258 548 226 334 226 270 c 0
 226 185 260 109 319 109 c 0
 375 109 403 221 403 446 c 0
 403 494 367 622 363 651 c 1
 418 632 483 622 556 622 c 1
 507 553 482 473 482 381 c 0
 482 241 530 116 626 6 c 1
254 810 m 1
 281 797 301 791 314 791 c 0
 328 791 344 797 363 810 c 1
 373 758 411 712 477 673 c 1
 398 673 l 1
 352 690 322 712 308 741 c 1
 289 710 260 687 220 673 c 1
 141 673 l 1
 222 735 244 760 254 810 c 1
EndSplineSet
EndChar

StartChar: Udieresis
Encoding: 220 220 129
Width: 641
Flags: W
LayerCount: 2
Fore
SplineSet
626 6 m 1
 411 -42 l 1
 422 -6 426 27 426 61 c 2
 424 88 l 1
 378 7 319 -33 246 -33 c 0
 155 -33 79 41 79 133 c 0
 79 197 133 401 133 464 c 0
 133 519 89 571 45 571 c 0
 16 571 -3 552 -13 514 c 1
 4 526 22 532 41 532 c 0
 67 532 80 520 80 495 c 0
 80 448 49 411 4 411 c 0
 -56 411 -104 466 -104 525 c 0
 -104 567 -81 594 -35 607 c 0
 -26 608 23 614 113 622 c 0
 179 627 226 643 255 666 c 1
 257 649 258 631 258 612 c 0
 258 548 226 334 226 270 c 0
 226 185 260 109 319 109 c 0
 375 109 403 221 403 446 c 0
 403 494 367 622 363 651 c 1
 418 632 483 622 556 622 c 1
 507 553 482 473 482 381 c 0
 482 241 530 116 626 6 c 1
407 787 m 0
 439 787 470 765 470 734 c 0
 470 701 439 680 407 680 c 0
 371 680 341 701 341 734 c 0
 341 765 371 787 407 787 c 0
199 787 m 0
 231 787 262 765 262 734 c 0
 262 701 231 680 199 680 c 0
 164 680 134 701 134 734 c 0
 134 766 164 787 199 787 c 0
EndSplineSet
EndChar

StartChar: Yacute
Encoding: 221 221 130
Width: 727
Flags: W
LayerCount: 2
Fore
SplineSet
701 554 m 1
 557 509 459 344 459 161 c 0
 459 94 472 34 497 -20 c 1
 468 -13 436 -9 399 -9 c 0
 361 -9 326 -13 294 -20 c 1
 325 69 357 161 357 258 c 0
 357 372 231 568 132 568 c 0
 107 568 90 550 81 514 c 1
 98 530 116 538 137 538 c 0
 162 538 175 525 175 500 c 0
 175 453 140 415 93 415 c 0
 34 415 -11 465 -11 525 c 0
 -11 567 12 594 58 607 c 0
 68 608 117 614 206 622 c 0
 271 627 319 643 350 666 c 1
 367 511 385 438 413 365 c 1
 449 440 498 654 504 670 c 1
 571 617 636 579 701 554 c 1
421 817 m 1
 555 817 l 1
 511 727 497 713 428 658 c 1
 359 658 l 1
 402 697 424 738 424 781 c 0
 424 790 423 802 421 817 c 1
EndSplineSet
EndChar

StartChar: Thorn
Encoding: 222 222 131
Width: 634
Flags: W
LayerCount: 2
Fore
SplineSet
377 131 m 0
 351 131 337 109 337 76 c 0
 337 43 352 4 385 -16 c 1
 322 -11 255 -7 187 -7 c 0
 141 -7 93 -9 46 -13 c 1
 60 4 132 69 149 100 c 0
 183 161 225 342 225 412 c 0
 225 493 153 602 92 602 c 0
 69 602 47 589 26 563 c 1
 38 568 49 571 60 571 c 0
 99 571 119 546 119 497 c 0
 119 454 75 426 30 426 c 0
 -26 426 -62 469 -62 538 c 0
 -62 622 -29 664 38 664 c 0
 72 664 195 640 232 640 c 0
 245 640 362 640 411 666 c 1
 361 621 347 582 347 556 c 0
 347 536 355 525 361 525 c 0
 488 525 609 434 609 323 c 0
 609 198 515 130 404 130 c 0
 395 130 386 131 377 131 c 0
341 439 m 0
 314 439 301 421 301 386 c 0
 301 306 341 209 389 209 c 0
 420 209 435 234 435 284 c 0
 435 387 404 439 341 439 c 0
EndSplineSet
EndChar

StartChar: germandbls
Encoding: 223 223 132
Width: 576
Flags: W
LayerCount: 2
Fore
SplineSet
34 -20 m 1
 54 19 64 71 64 138 c 0
 64 181 58 236 58 276 c 2
 58 404 l 2
 58 456 59 488 59 499 c 2
 59 504 l 2
 59 609 142 676 255 676 c 0
 373 676 470 618 470 532 c 0
 470 484 441 433 383 378 c 1
 514 363 530 308 530 234 c 0
 530 91 397 -20 268 -20 c 1
 268 -5 238 104 234 138 c 1
 255 112 277 99 300 99 c 0
 341 99 357 193 357 229 c 0
 357 276 342 300 313 300 c 0
 294 300 273 291 249 273 c 1
 249 309 247 365 243 440 c 1
 265 424 285 416 302 416 c 0
 333 416 349 438 349 483 c 0
 349 547 305 606 248 606 c 0
 195 606 168 529 168 375 c 0
 168 252 200 -18 210 -20 c 1
 204 -25 188 -27 161 -27 c 0
 133 -27 34 -20 34 -20 c 1
EndSplineSet
EndChar

StartChar: agrave
Encoding: 224 224 133
Width: 422
Flags: W
LayerCount: 2
Fore
SplineSet
238 -32 m 1
 256 -10 265 12 265 35 c 1
 242 -8 174 -42 123 -42 c 0
 62 -42 32 -5 32 70 c 0
 32 146 55 166 188 166 c 0
 233 166 256 179 256 204 c 0
 256 261 240 289 208 289 c 0
 178 289 133 255 133 222 c 0
 133 215 137 209 144 204 c 1
 142 208 141 212 141 215 c 0
 141 234 152 244 174 244 c 0
 195 244 206 236 206 221 c 0
 206 200 183 180 162 180 c 0
 105 180 76 195 76 226 c 0
 76 275 153 322 218 322 c 0
 292 322 367 263 367 199 c 0
 367 168 330 72 330 41 c 0
 330 11 352 -5 396 -9 c 1
 319 -10 266 -17 238 -32 c 1
246 151 m 1
 146 122 125 109 125 73 c 0
 125 37 138 19 164 19 c 0
 212 19 246 86 246 151 c 1
79 514 m 1
 116 505 143 500 160 500 c 0
 177 500 195 505 213 514 c 1
 218 454 238 401 274 355 c 1
 206 355 l 1
 155 390 113 443 79 514 c 1
EndSplineSet
EndChar

StartChar: aacute
Encoding: 225 225 134
Width: 422
Flags: W
LayerCount: 2
Fore
SplineSet
238 -32 m 1
 256 -10 265 12 265 35 c 1
 242 -8 174 -42 123 -42 c 0
 62 -42 32 -5 32 70 c 0
 32 146 55 166 188 166 c 0
 233 166 256 179 256 204 c 0
 256 261 240 289 208 289 c 0
 178 289 133 255 133 222 c 0
 133 215 137 209 144 204 c 1
 142 208 141 212 141 215 c 0
 141 234 152 244 174 244 c 0
 195 244 206 236 206 221 c 0
 206 200 183 180 162 180 c 0
 105 180 76 195 76 226 c 0
 76 275 153 322 218 322 c 0
 292 322 367 263 367 199 c 0
 367 168 330 72 330 41 c 0
 330 11 352 -5 396 -9 c 1
 319 -10 266 -17 238 -32 c 1
246 151 m 1
 146 122 125 109 125 73 c 0
 125 37 138 19 164 19 c 0
 212 19 246 86 246 151 c 1
202 506 m 1
 336 506 l 1
 292 416 278 402 209 347 c 1
 140 347 l 1
 183 386 205 427 205 470 c 0
 205 479 204 491 202 506 c 1
EndSplineSet
EndChar

StartChar: acircumflex
Encoding: 226 226 135
Width: 422
Flags: W
LayerCount: 2
Fore
SplineSet
238 -32 m 1
 256 -10 265 12 265 35 c 1
 242 -8 174 -42 123 -42 c 0
 62 -42 32 -5 32 70 c 0
 32 146 55 166 188 166 c 0
 233 166 256 179 256 204 c 0
 256 261 240 289 208 289 c 0
 178 289 133 255 133 222 c 0
 133 215 137 209 144 204 c 1
 142 208 141 212 141 215 c 0
 141 234 152 244 174 244 c 0
 195 244 206 236 206 221 c 0
 206 200 183 180 162 180 c 0
 105 180 76 195 76 226 c 0
 76 275 153 322 218 322 c 0
 292 322 367 263 367 199 c 0
 367 168 330 72 330 41 c 0
 330 11 352 -5 396 -9 c 1
 319 -10 266 -17 238 -32 c 1
246 151 m 1
 146 122 125 109 125 73 c 0
 125 37 138 19 164 19 c 0
 212 19 246 86 246 151 c 1
169 480 m 1
 196 467 216 461 229 461 c 0
 243 461 259 467 278 480 c 1
 288 428 326 382 392 343 c 1
 313 343 l 1
 267 360 237 382 223 411 c 1
 204 380 175 357 135 343 c 1
 56 343 l 1
 137 405 159 430 169 480 c 1
EndSplineSet
EndChar

StartChar: atilde
Encoding: 227 227 136
Width: 422
Flags: W
LayerCount: 2
Fore
SplineSet
238 -32 m 1
 256 -10 265 12 265 35 c 1
 242 -8 174 -42 123 -42 c 0
 62 -42 32 -5 32 70 c 0
 32 146 55 166 188 166 c 0
 233 166 256 179 256 204 c 0
 256 261 240 289 208 289 c 0
 178 289 133 255 133 222 c 0
 133 215 137 209 144 204 c 1
 142 208 141 212 141 215 c 0
 141 234 152 244 174 244 c 0
 195 244 206 236 206 221 c 0
 206 200 183 180 162 180 c 0
 105 180 76 195 76 226 c 0
 76 275 153 322 218 322 c 0
 292 322 367 263 367 199 c 0
 367 168 330 72 330 41 c 0
 330 11 352 -5 396 -9 c 1
 319 -10 266 -17 238 -32 c 1
246 151 m 1
 146 122 125 109 125 73 c 0
 125 37 138 19 164 19 c 0
 212 19 246 86 246 151 c 1
175 348 m 1
 166 357 150 361 127 361 c 0
 102 361 79 357 58 348 c 1
 60 456 83 476 170 476 c 0
 190 476 289 393 297 393 c 0
 304 393 308 401 308 416 c 0
 308 429 305 449 298 476 c 1
 309 467 321 462 333 462 c 0
 344 462 358 467 377 476 c 1
 377 371 351 347 264 345 c 0
 257 345 177 415 168 415 c 0
 165 415 163 411 163 402 c 0
 163 392 167 374 175 348 c 1
EndSplineSet
EndChar

StartChar: adieresis
Encoding: 228 228 137
Width: 422
Flags: W
LayerCount: 2
Fore
SplineSet
238 -32 m 1
 256 -10 265 12 265 35 c 1
 242 -8 174 -42 123 -42 c 0
 62 -42 32 -5 32 70 c 0
 32 146 55 166 188 166 c 0
 233 166 256 179 256 204 c 0
 256 261 240 289 208 289 c 0
 178 289 133 255 133 222 c 0
 133 215 137 209 144 204 c 1
 142 208 141 212 141 215 c 0
 141 234 152 244 174 244 c 0
 195 244 206 236 206 221 c 0
 206 200 183 180 162 180 c 0
 105 180 76 195 76 226 c 0
 76 275 153 322 218 322 c 0
 292 322 367 263 367 199 c 0
 367 168 330 72 330 41 c 0
 330 11 352 -5 396 -9 c 1
 319 -10 266 -17 238 -32 c 1
246 151 m 1
 146 122 125 109 125 73 c 0
 125 37 138 19 164 19 c 0
 212 19 246 86 246 151 c 1
316 440 m 0
 348 440 379 418 379 387 c 0
 379 354 348 333 316 333 c 0
 280 333 250 354 250 387 c 0
 250 418 280 440 316 440 c 0
108 440 m 0
 140 440 171 418 171 387 c 0
 171 354 140 333 108 333 c 0
 73 333 43 354 43 387 c 0
 43 419 73 440 108 440 c 0
EndSplineSet
EndChar

StartChar: aring
Encoding: 229 229 138
Width: 422
Flags: W
LayerCount: 2
Fore
SplineSet
238 -32 m 1
 256 -10 265 12 265 35 c 1
 242 -8 174 -42 123 -42 c 0
 62 -42 32 -5 32 70 c 0
 32 146 55 166 188 166 c 0
 233 166 256 179 256 204 c 0
 256 261 240 289 208 289 c 0
 178 289 133 255 133 222 c 0
 133 215 137 209 144 204 c 1
 142 208 141 212 141 215 c 0
 141 234 152 244 174 244 c 0
 195 244 206 236 206 221 c 0
 206 200 183 180 162 180 c 0
 105 180 76 195 76 226 c 0
 76 275 153 322 218 322 c 0
 292 322 367 263 367 199 c 0
 367 168 330 72 330 41 c 0
 330 11 352 -5 396 -9 c 1
 319 -10 266 -17 238 -32 c 1
246 151 m 1
 146 122 125 109 125 73 c 0
 125 37 138 19 164 19 c 0
 212 19 246 86 246 151 c 1
228 498 m 0
 289 498 342 464 342 415 c 0
 342 368 291 332 228 332 c 0
 168 332 114 368 114 415 c 0
 114 464 167 498 228 498 c 0
228 468 m 0
 188 468 155 446 155 415 c 0
 155 384 188 363 228 363 c 0
 265 363 300 386 300 415 c 0
 300 446 265 468 228 468 c 0
EndSplineSet
EndChar

StartChar: ae
Encoding: 230 230 139
Width: 637
Flags: W
LayerCount: 2
Fore
SplineSet
605 143 m 1
 584 35 527 -19 434 -19 c 0
 387 -19 316 -10 279 70 c 1
 220 -21 163 -42 111 -42 c 0
 51 -42 21 -5 21 70 c 0
 21 147 45 166 177 166 c 0
 222 166 244 179 244 204 c 0
 244 261 228 289 196 289 c 0
 166 289 121 255 121 222 c 0
 121 215 125 209 132 204 c 1
 130 208 129 212 129 215 c 0
 129 234 140 244 162 244 c 0
 183 244 194 236 194 221 c 0
 194 200 171 180 150 180 c 0
 93 180 64 195 64 226 c 0
 64 275 141 322 206 322 c 0
 248 322 296 304 328 267 c 1
 356 285 389 294 428 294 c 0
 488 294 539 273 582 231 c 1
 569 230 543 211 505 174 c 0
 467 137 435 118 408 116 c 1
 420 90 446 77 487 77 c 0
 522 77 562 99 605 143 c 1
234 151 m 1
 134 122 113 109 113 73 c 0
 113 37 126 19 152 19 c 0
 200 19 234 86 234 151 c 1
448 224 m 1
 423 235 402 241 387 241 c 0
 368 241 358 231 358 211 c 0
 358 192 364 174 377 156 c 1
 423 164 441 217 448 224 c 1
EndSplineSet
EndChar

StartChar: ccedilla
Encoding: 231 231 140
Width: 456
Flags: W
LayerCount: 2
Fore
SplineSet
364 279 m 1
 425 332 l 1
 414 290 400 246 382 200 c 1
 367 216 344 224 311 224 c 0
 252 224 211 180 211 121 c 0
 211 64 252 24 309 24 c 0
 354 24 387 34 406 53 c 1
 391 -6 333 -40 260 -40 c 0
 151 -40 65 29 65 122 c 0
 65 236 162 319 276 319 c 0
 321 319 351 306 364 279 c 1
197 -132 m 1
 263 -26 l 1
 298 -26 l 1
 269 -73 l 1
 318 -84 343 -113 343 -160 c 0
 343 -227 278 -268 215 -268 c 0
 200 -268 181 -267 160 -264 c 1
 160 -239 l 1
 174 -240 184 -241 189 -241 c 0
 224 -241 260 -211 260 -175 c 0
 260 -146 243 -131 209 -131 c 0
 206 -131 202 -131 197 -132 c 1
EndSplineSet
EndChar

StartChar: egrave
Encoding: 232 232 141
Width: 400
Flags: W
LayerCount: 2
Fore
SplineSet
391 143 m 1
 370 35 313 -19 220 -19 c 0
 119 -19 44 43 44 136 c 0
 44 231 119 294 214 294 c 0
 274 294 325 273 368 231 c 1
 355 230 329 211 291 174 c 0
 253 137 221 118 194 116 c 1
 206 90 232 77 273 77 c 0
 308 77 348 99 391 143 c 1
234 224 m 1
 209 235 188 241 173 241 c 0
 154 241 144 231 144 211 c 0
 144 192 150 174 163 156 c 1
 209 164 227 217 234 224 c 1
76 480 m 1
 113 471 140 466 157 466 c 0
 174 466 192 471 210 480 c 1
 215 420 235 367 271 321 c 1
 203 321 l 1
 152 356 110 409 76 480 c 1
EndSplineSet
EndChar

StartChar: eacute
Encoding: 233 233 142
Width: 436
Flags: W
LayerCount: 2
Fore
SplineSet
391 143 m 1
 370 35 313 -19 220 -19 c 0
 119 -19 44 43 44 136 c 0
 44 231 119 294 214 294 c 0
 274 294 325 273 368 231 c 1
 355 230 329 211 291 174 c 0
 253 137 221 118 194 116 c 1
 206 90 232 77 273 77 c 0
 308 77 348 99 391 143 c 1
234 224 m 1
 209 235 188 241 173 241 c 0
 154 241 144 231 144 211 c 0
 144 192 150 174 163 156 c 1
 209 164 227 217 234 224 c 1
196 483 m 1
 330 483 l 1
 286 393 272 379 203 324 c 1
 134 324 l 1
 177 363 199 404 199 447 c 0
 199 456 198 468 196 483 c 1
EndSplineSet
EndChar

StartChar: ecircumflex
Encoding: 234 234 143
Width: 436
Flags: W
LayerCount: 2
Fore
SplineSet
391 143 m 1
 370 35 313 -19 220 -19 c 0
 119 -19 44 43 44 136 c 0
 44 231 119 294 214 294 c 0
 274 294 325 273 368 231 c 1
 355 230 329 211 291 174 c 0
 253 137 221 118 194 116 c 1
 206 90 232 77 273 77 c 0
 308 77 348 99 391 143 c 1
234 224 m 1
 209 235 188 241 173 241 c 0
 154 241 144 231 144 211 c 0
 144 192 150 174 163 156 c 1
 209 164 227 217 234 224 c 1
164 473 m 1
 191 460 211 454 224 454 c 0
 238 454 254 460 273 473 c 1
 283 421 321 375 387 336 c 1
 308 336 l 1
 262 353 232 375 218 404 c 1
 199 373 170 350 130 336 c 1
 51 336 l 1
 132 398 154 423 164 473 c 1
EndSplineSet
EndChar

StartChar: edieresis
Encoding: 235 235 144
Width: 436
Flags: W
LayerCount: 2
Fore
SplineSet
391 143 m 1
 370 35 313 -19 220 -19 c 0
 119 -19 44 43 44 136 c 0
 44 231 119 294 214 294 c 0
 274 294 325 273 368 231 c 1
 355 230 329 211 291 174 c 0
 253 137 221 118 194 116 c 1
 206 90 232 77 273 77 c 0
 308 77 348 99 391 143 c 1
234 224 m 1
 209 235 188 241 173 241 c 0
 154 241 144 231 144 211 c 0
 144 192 150 174 163 156 c 1
 209 164 227 217 234 224 c 1
313 434 m 0
 345 434 376 412 376 381 c 0
 376 348 345 327 313 327 c 0
 277 327 247 348 247 381 c 0
 247 412 277 434 313 434 c 0
105 434 m 0
 137 434 168 412 168 381 c 0
 168 348 137 327 105 327 c 0
 70 327 40 348 40 381 c 0
 40 413 70 434 105 434 c 0
EndSplineSet
EndChar

StartChar: igrave
Encoding: 236 236 145
Width: 288
Flags: W
LayerCount: 2
Fore
SplineSet
260 -11 m 1
 241 -8 217 -6 190 -6 c 0
 145 -6 94 -11 39 -21 c 1
 83 0 136 109 136 156 c 0
 136 200 90 252 46 256 c 1
 76 278 159 290 227 299 c 1
 216 278 211 247 211 204 c 0
 211 107 227 35 260 -11 c 1
26 493 m 1
 63 484 90 479 107 479 c 0
 124 479 142 484 160 493 c 1
 165 433 185 380 221 334 c 1
 153 334 l 1
 102 369 60 422 26 493 c 1
EndSplineSet
EndChar

StartChar: iacute
Encoding: 237 237 146
Width: 288
Flags: W
LayerCount: 2
Fore
SplineSet
256 -11 m 1
 237 -8 213 -6 186 -6 c 0
 141 -6 90 -11 35 -21 c 1
 79 0 132 109 132 156 c 0
 132 200 86 252 42 256 c 1
 72 278 155 290 223 299 c 1
 212 278 207 247 207 204 c 0
 207 107 223 35 256 -11 c 1
129 493 m 1
 263 493 l 1
 219 403 205 389 136 334 c 1
 67 334 l 1
 110 373 132 414 132 457 c 0
 132 466 131 478 129 493 c 1
EndSplineSet
EndChar

StartChar: icircumflex
Encoding: 238 238 147
Width: 288
Flags: W
LayerCount: 2
Fore
SplineSet
252 -11 m 1
 233 -8 209 -6 182 -6 c 0
 137 -6 86 -11 31 -21 c 1
 75 0 128 109 128 156 c 0
 128 200 82 252 38 256 c 1
 68 278 151 290 219 299 c 1
 208 278 203 247 203 204 c 0
 203 107 219 35 252 -11 c 1
93 484 m 1
 120 471 140 465 153 465 c 0
 167 465 183 471 202 484 c 1
 212 432 250 386 316 347 c 1
 237 347 l 1
 191 364 161 386 147 415 c 1
 128 384 99 361 59 347 c 1
 -20 347 l 1
 61 409 83 434 93 484 c 1
EndSplineSet
EndChar

StartChar: idieresis
Encoding: 239 239 148
Width: 288
Flags: W
LayerCount: 2
Fore
SplineSet
261 -11 m 1
 242 -8 218 -6 191 -6 c 0
 146 -6 95 -11 40 -21 c 1
 84 0 137 109 137 156 c 0
 137 200 91 252 47 256 c 1
 77 278 160 290 228 299 c 1
 217 278 212 247 212 204 c 0
 212 107 228 35 261 -11 c 1
257 454 m 0
 289 454 320 432 320 401 c 0
 320 368 289 347 257 347 c 0
 221 347 191 368 191 401 c 0
 191 432 221 454 257 454 c 0
49 454 m 0
 81 454 112 432 112 401 c 0
 112 368 81 347 49 347 c 0
 14 347 -16 368 -16 401 c 0
 -16 433 14 454 49 454 c 0
EndSplineSet
EndChar

StartChar: eth
Encoding: 240 240 149
Width: 421
Flags: W
LayerCount: 2
Fore
SplineSet
434 631 m 1
 386 624 339 597 291 548 c 2
 283 539 l 1
 336 433 378 317 378 239 c 0
 378 90 297 -33 187 -33 c 0
 99 -33 25 33 25 128 c 0
 25 221 93 308 170 308 c 0
 213 308 248 284 274 236 c 1
 270 308 248 381 220 464 c 1
 171 404 115 335 94 324 c 1
 89 352 73 386 46 426 c 1
 51 425 57 424 63 424 c 0
 106 424 157 456 206 502 c 1
 183 558 157 598 132 598 c 0
 110 598 92 583 72 554 c 0
 47 518 30 498 22 492 c 1
 38 539 40 553 45 681 c 1
 49 652 61 637 81 637 c 0
 97 637 150 665 167 665 c 0
 199 665 234 625 267 568 c 1
 307 620 338 676 350 720 c 1
 371 689 398 659 434 631 c 1
275 174 m 1
 261 125 238 101 208 101 c 0
 178 101 148 128 148 158 c 0
 148 180 160 192 182 192 c 0
 199 192 208 183 208 165 c 0
 208 155 204 146 198 138 c 1
 209 138 215 146 215 164 c 0
 215 198 189 236 160 236 c 0
 126 236 103 195 103 141 c 0
 103 79 132 28 169 28 c 0
 226 28 254 64 275 174 c 1
EndSplineSet
EndChar

StartChar: ntilde
Encoding: 241 241 150
Width: 445
Flags: W
LayerCount: 2
Fore
SplineSet
427 -14 m 1
 419 -17 408 -19 394 -19 c 0
 341 -19 305 1 288 40 c 0
 283 51 276 87 266 150 c 0
 259 190 244 210 220 210 c 0
 195 210 182 188 182 144 c 0
 182 78 217 8 261 -14 c 1
 236 -18 205 -20 169 -20 c 2
 118 -20 l 2
 100 -20 87 -19 76 -19 c 2
 69 -19 l 1
 90 10 100 49 100 100 c 0
 100 167 80 212 39 234 c 1
 60 241 83 255 108 277 c 2
 171 332 l 1
 175 312 177 283 177 246 c 1
 206 303 242 332 286 332 c 0
 346 332 387 275 387 200 c 0
 387 175 368 92 368 67 c 0
 368 32 388 5 427 -14 c 1
160 379 m 1
 151 388 135 392 112 392 c 0
 87 392 64 388 43 379 c 1
 45 487 68 507 155 507 c 0
 175 507 274 424 282 424 c 0
 289 424 293 432 293 447 c 0
 293 460 290 480 283 507 c 1
 294 498 306 493 318 493 c 0
 329 493 343 498 362 507 c 1
 362 402 336 378 249 376 c 0
 242 376 162 446 153 446 c 0
 150 446 148 442 148 433 c 0
 148 423 152 405 160 379 c 1
EndSplineSet
EndChar

StartChar: ograve
Encoding: 242 242 151
Width: 454
Flags: W
LayerCount: 2
Fore
SplineSet
251 -28 m 0
 139 -28 48 35 48 134 c 0
 48 234 125 314 225 314 c 0
 343 314 424 242 424 141 c 0
 424 40 352 -28 251 -28 c 0
336 80 m 0
 336 131 244 246 192 246 c 0
 175 246 166 231 166 201 c 0
 166 148 257 46 310 46 c 0
 327 46 336 57 336 80 c 0
115 528 m 1
 152 519 179 514 196 514 c 0
 213 514 231 519 249 528 c 1
 254 468 274 415 310 369 c 1
 242 369 l 1
 191 404 149 457 115 528 c 1
EndSplineSet
EndChar

StartChar: oacute
Encoding: 243 243 152
Width: 454
Flags: W
LayerCount: 2
Fore
SplineSet
251 -28 m 0
 139 -28 48 35 48 134 c 0
 48 234 125 314 225 314 c 0
 343 314 424 242 424 141 c 0
 424 40 352 -28 251 -28 c 0
336 80 m 0
 336 131 244 246 192 246 c 0
 175 246 166 231 166 201 c 0
 166 148 257 46 310 46 c 0
 327 46 336 57 336 80 c 0
219 507 m 1
 353 507 l 1
 309 417 295 403 226 348 c 1
 157 348 l 1
 200 387 222 428 222 471 c 0
 222 480 221 492 219 507 c 1
EndSplineSet
EndChar

StartChar: ocircumflex
Encoding: 244 244 153
Width: 454
Flags: W
LayerCount: 2
Fore
SplineSet
251 -28 m 0
 139 -28 48 35 48 134 c 0
 48 234 125 314 225 314 c 0
 343 314 424 242 424 141 c 0
 424 40 352 -28 251 -28 c 0
336 80 m 0
 336 131 244 246 192 246 c 0
 175 246 166 231 166 201 c 0
 166 148 257 46 310 46 c 0
 327 46 336 57 336 80 c 0
177 481 m 1
 204 468 224 462 237 462 c 0
 251 462 267 468 286 481 c 1
 296 429 334 383 400 344 c 1
 321 344 l 1
 275 361 245 383 231 412 c 1
 212 381 183 358 143 344 c 1
 64 344 l 1
 145 406 167 431 177 481 c 1
EndSplineSet
EndChar

StartChar: otilde
Encoding: 245 245 154
Width: 454
Flags: W
LayerCount: 2
Fore
SplineSet
251 -28 m 0
 139 -28 48 35 48 134 c 0
 48 234 125 314 225 314 c 0
 343 314 424 242 424 141 c 0
 424 40 352 -28 251 -28 c 0
336 80 m 0
 336 131 244 246 192 246 c 0
 175 246 166 231 166 201 c 0
 166 148 257 46 310 46 c 0
 327 46 336 57 336 80 c 0
183 358 m 1
 174 367 158 371 135 371 c 0
 110 371 87 367 66 358 c 1
 68 466 91 486 178 486 c 0
 198 486 297 403 305 403 c 0
 312 403 316 411 316 426 c 0
 316 439 313 459 306 486 c 1
 317 477 329 472 341 472 c 0
 352 472 366 477 385 486 c 1
 385 381 359 357 272 355 c 0
 265 355 185 425 176 425 c 0
 173 425 171 421 171 412 c 0
 171 402 175 384 183 358 c 1
EndSplineSet
EndChar

StartChar: odieresis
Encoding: 246 246 155
Width: 454
Flags: W
LayerCount: 2
Fore
SplineSet
251 -28 m 0
 139 -28 48 35 48 134 c 0
 48 234 125 314 225 314 c 0
 343 314 424 242 424 141 c 0
 424 40 352 -28 251 -28 c 0
336 80 m 0
 336 131 244 246 192 246 c 0
 175 246 166 231 166 201 c 0
 166 148 257 46 310 46 c 0
 327 46 336 57 336 80 c 0
327 470 m 0
 359 470 390 448 390 417 c 0
 390 384 359 363 327 363 c 0
 291 363 261 384 261 417 c 0
 261 448 291 470 327 470 c 0
119 470 m 0
 151 470 182 448 182 417 c 0
 182 384 151 363 119 363 c 0
 84 363 54 384 54 417 c 0
 54 449 84 470 119 470 c 0
EndSplineSet
EndChar

StartChar: divide
Encoding: 247 247 156
Width: 349
Flags: W
LayerCount: 2
Fore
SplineSet
313 220 m 1
 269 250 220 265 166 265 c 0
 132 265 100 258 69 245 c 1
 78 260 83 275 84 290 c 2
 83 341 l 1
 100 313 132 299 178 299 c 0
 216 299 259 313 306 341 c 1
 306 318 313 241 313 220 c 1
275 399 m 0
 275 359 249 339 198 339 c 0
 146 339 99 376 99 427 c 0
 99 467 124 487 174 487 c 0
 241 487 275 458 275 399 c 0
291 132 m 0
 291 92 265 72 214 72 c 0
 162 72 115 109 115 160 c 0
 115 200 140 220 190 220 c 0
 257 220 291 191 291 132 c 0
EndSplineSet
EndChar

StartChar: oslash
Encoding: 248 248 157
Width: 420
Flags: W
LayerCount: 2
Fore
SplineSet
376 315 m 1
 357 307 341 297 326 284 c 1
 348 270 l 1
 387 238 407 195 407 141 c 0
 407 40 337 -28 234 -28 c 0
 206 -28 181 -25 160 -20 c 1
 146 -49 133 -69 121 -79 c 1
 110 -52 88 -20 53 16 c 1
 63 16 73 18 82 21 c 1
 47 50 30 87 30 134 c 0
 30 232 110 314 209 314 c 0
 226 314 245 312 264 308 c 1
 272 339 276 365 277 388 c 1
 302 360 335 336 376 315 c 1
319 80 m 0
 319 109 300 151 256 195 c 1
 243 172 226 139 207 94 c 1
 238 62 266 46 293 46 c 0
 310 46 319 57 319 80 c 0
177 246 m 0
 158 246 149 231 149 201 c 0
 149 178 161 152 185 121 c 1
 201 150 218 182 234 219 c 1
 212 237 193 246 177 246 c 0
EndSplineSet
EndChar

StartChar: ugrave
Encoding: 249 249 158
Width: 450
Flags: W
LayerCount: 2
Fore
SplineSet
401 61 m 1
 316 1 l 2
 294 -19 278 -32 269 -39 c 1
 266 -18 265 10 265 46 c 1
 238 -11 202 -39 157 -39 c 0
 97 -39 54 24 54 97 c 0
 54 121 72 205 72 231 c 0
 72 270 62 283 14 308 c 1
 31 315 46 318 59 318 c 0
 95 318 124 297 148 256 c 0
 162 231 211 84 224 84 c 0
 254 84 269 97 269 123 c 0
 269 148 258 182 235 220 c 2
 181 308 l 1
 206 312 237 314 272 314 c 0
 290 314 356 312 375 312 c 1
 349 279 336 254 336 235 c 0
 336 183 374 69 401 61 c 1
64 523 m 1
 101 514 128 509 145 509 c 0
 162 509 180 514 198 523 c 1
 203 463 223 410 259 364 c 1
 191 364 l 1
 140 399 98 452 64 523 c 1
EndSplineSet
EndChar

StartChar: uacute
Encoding: 250 250 159
Width: 450
Flags: W
LayerCount: 2
Fore
SplineSet
401 61 m 1
 316 1 l 2
 294 -19 278 -32 269 -39 c 1
 266 -18 265 10 265 46 c 1
 238 -11 202 -39 157 -39 c 0
 97 -39 54 24 54 97 c 0
 54 121 72 205 72 231 c 0
 72 270 62 283 14 308 c 1
 31 315 46 318 59 318 c 0
 95 318 124 297 148 256 c 0
 162 231 211 84 224 84 c 0
 254 84 269 97 269 123 c 0
 269 148 258 182 235 220 c 2
 181 308 l 1
 206 312 237 314 272 314 c 0
 290 314 356 312 375 312 c 1
 349 279 336 254 336 235 c 0
 336 183 374 69 401 61 c 1
196 512 m 1
 330 512 l 1
 286 422 272 408 203 353 c 1
 134 353 l 1
 177 392 199 433 199 476 c 0
 199 485 198 497 196 512 c 1
EndSplineSet
EndChar

StartChar: ucircumflex
Encoding: 251 251 160
Width: 450
Flags: W
LayerCount: 2
Fore
SplineSet
401 61 m 1
 316 1 l 2
 294 -19 278 -32 269 -39 c 1
 266 -18 265 10 265 46 c 1
 238 -11 202 -39 157 -39 c 0
 97 -39 54 24 54 97 c 0
 54 121 72 205 72 231 c 0
 72 270 62 283 14 308 c 1
 31 315 46 318 59 318 c 0
 95 318 124 297 148 256 c 0
 162 231 211 84 224 84 c 0
 254 84 269 97 269 123 c 0
 269 148 258 182 235 220 c 2
 181 308 l 1
 206 312 237 314 272 314 c 0
 290 314 356 312 375 312 c 1
 349 279 336 254 336 235 c 0
 336 183 374 69 401 61 c 1
146 503 m 1
 173 490 193 484 206 484 c 0
 220 484 236 490 255 503 c 1
 265 451 303 405 369 366 c 1
 290 366 l 1
 244 383 214 405 200 434 c 1
 181 403 152 380 112 366 c 1
 33 366 l 1
 114 428 136 453 146 503 c 1
EndSplineSet
EndChar

StartChar: udieresis
Encoding: 252 252 161
Width: 450
Flags: W
LayerCount: 2
Fore
SplineSet
401 61 m 1
 316 1 l 2
 294 -19 278 -32 269 -39 c 1
 266 -18 265 10 265 46 c 1
 238 -11 202 -39 157 -39 c 0
 97 -39 54 24 54 97 c 0
 54 121 72 205 72 231 c 0
 72 270 62 283 14 308 c 1
 31 315 46 318 59 318 c 0
 95 318 124 297 148 256 c 0
 162 231 211 84 224 84 c 0
 254 84 269 97 269 123 c 0
 269 148 258 182 235 220 c 2
 181 308 l 1
 206 312 237 314 272 314 c 0
 290 314 356 312 375 312 c 1
 349 279 336 254 336 235 c 0
 336 183 374 69 401 61 c 1
303 471 m 0
 335 471 366 449 366 418 c 0
 366 385 335 364 303 364 c 0
 267 364 237 385 237 418 c 0
 237 449 267 471 303 471 c 0
95 471 m 0
 127 471 158 449 158 418 c 0
 158 385 127 364 95 364 c 0
 60 364 30 385 30 418 c 0
 30 450 60 471 95 471 c 0
EndSplineSet
EndChar

StartChar: yacute
Encoding: 253 253 162
Width: 439
Flags: W
LayerCount: 2
Fore
SplineSet
357 102 m 2
 326 -106 l 1
 303 -177 253 -213 175 -213 c 0
 108 -213 74 -190 74 -145 c 0
 74 -102 114 -74 157 -74 c 0
 188 -74 204 -88 204 -116 c 0
 204 -129 199 -140 189 -150 c 1
 244 -146 274 -97 274 -42 c 0
 274 -23 271 -3 266 17 c 1
 254 -10 236 -23 211 -23 c 0
 161 -23 109 28 95 73 c 0
 77 128 46 177 6 219 c 1
 21 216 37 215 56 215 c 0
 105 215 151 221 194 234 c 1
 171 202 159 171 159 142 c 0
 159 108 180 77 207 77 c 0
 241 77 258 107 258 166 c 0
 258 190 254 218 246 251 c 1
 330 238 l 2
 363 233 392 231 416 231 c 0
 428 231 440 231 451 232 c 1
 401 221 368 177 357 102 c 2
204 454 m 5
 338 454 l 5
 294 364 280 350 211 295 c 5
 142 295 l 5
 185 334 207 375 207 418 c 4
 207 427 206 439 204 454 c 5
EndSplineSet
EndChar

StartChar: thorn
Encoding: 254 254 163
Width: 509
Flags: W
LayerCount: 2
Fore
SplineSet
478 146 m 0
 478 39 395 -22 271 -22 c 0
 227 -22 195 -16 175 -4 c 1
 175 -194 l 1
 146 -156 140 -156 4 -122 c 1
 58 -37 86 52 86 142 c 0
 86 232 58 323 4 412 c 1
 60 427 91 435 97 436 c 0
 134 448 160 464 175 485 c 1
 175 245 l 1
 181 291 245 337 295 337 c 0
 385 337 478 233 478 146 c 0
274 63 m 0
 303 63 317 87 317 136 c 0
 317 181 298 224 269 224 c 0
 231 224 212 187 212 113 c 1
 225 72 259 63 274 63 c 0
EndSplineSet
EndChar

StartChar: ydieresis
Encoding: 255 255 164
Width: 459
Flags: W
LayerCount: 2
Fore
SplineSet
357 102 m 2
 326 -106 l 1
 303 -177 253 -213 175 -213 c 0
 108 -213 74 -190 74 -145 c 0
 74 -102 114 -74 157 -74 c 0
 188 -74 204 -88 204 -116 c 0
 204 -129 199 -140 189 -150 c 1
 244 -146 274 -97 274 -42 c 0
 274 -23 271 -3 266 17 c 1
 254 -10 236 -23 211 -23 c 0
 161 -23 109 28 95 73 c 0
 77 128 46 177 6 219 c 1
 21 216 37 215 56 215 c 0
 105 215 151 221 194 234 c 1
 171 202 159 171 159 142 c 0
 159 108 180 77 207 77 c 0
 241 77 258 107 258 166 c 0
 258 190 254 218 246 251 c 1
 330 238 l 2
 363 233 392 231 416 231 c 0
 428 231 440 231 451 232 c 1
 401 221 368 177 357 102 c 2
319 411 m 0
 351 411 382 389 382 358 c 0
 382 325 351 304 319 304 c 0
 283 304 253 325 253 358 c 0
 253 389 283 411 319 411 c 0
111 411 m 0
 143 411 174 389 174 358 c 0
 174 325 143 304 111 304 c 0
 76 304 46 325 46 358 c 0
 46 390 76 411 111 411 c 0
EndSplineSet
EndChar

StartChar: dotlessi
Encoding: 305 305 165
Width: 290
Flags: W
LayerCount: 2
Fore
SplineSet
240 -11 m 1
 221 -8 197 -6 170 -6 c 0
 125 -6 74 -11 19 -21 c 1
 63 0 116 109 116 156 c 0
 116 200 70 252 26 256 c 1
 56 278 139 290 207 299 c 1
 196 278 191 247 191 204 c 0
 191 107 207 35 240 -11 c 1
EndSplineSet
EndChar

StartChar: Lslash
Encoding: 321 321 166
Width: 659
Flags: W
LayerCount: 2
Fore
SplineSet
469 389 m 1
 458 390 448 390 437 390 c 0
 385 390 335 381 287 364 c 1
 275 306 266 254 266 227 c 0
 266 197 270 169 277 143 c 1
 308 166 339 178 370 178 c 0
 408 178 518 112 541 112 c 0
 572 112 603 140 636 196 c 1
 637 186 637 176 637 167 c 0
 637 50 559 -23 440 -23 c 0
 400 -23 270 10 231 10 c 0
 210 10 153 0 60 -20 c 1
 128 95 173 207 195 316 c 1
 168 298 144 276 124 252 c 1
 124 276 120 297 109 316 c 2
 69 374 l 1
 86 366 105 362 125 362 c 0
 150 362 176 368 205 380 c 1
 208 408 210 436 210 464 c 0
 210 514 173 571 122 571 c 0
 93 571 73 552 64 514 c 1
 83 526 101 532 118 532 c 0
 144 532 157 519 157 494 c 0
 157 447 125 412 80 412 c 0
 20 412 -27 466 -27 525 c 0
 -27 568 -5 596 40 607 c 0
 52 610 101 615 188 622 c 0
 255 628 303 643 332 666 c 1
 333 652 334 637 334 621 c 0
 334 588 320 521 305 450 c 1
 326 472 346 498 366 528 c 1
 383 501 452 415 469 389 c 1
EndSplineSet
EndChar

StartChar: lslash
Encoding: 322 322 167
Width: 290
Flags: W
LayerCount: 2
Fore
SplineSet
329 193 m 1
 313 195 298 196 283 196 c 0
 256 196 229 193 203 185 c 1
 219 91 244 26 279 -9 c 1
 259 -6 237 -5 214 -5 c 0
 163 -5 106 -11 43 -23 c 1
 88 23 114 80 121 148 c 1
 95 132 72 111 52 87 c 1
 52 110 50 126 44 144 c 2
 15 199 l 1
 30 189 47 184 66 184 c 0
 83 184 102 189 123 197 c 1
 120 277 96 343 51 395 c 1
 103 412 148 435 185 465 c 1
 185 381 188 308 195 245 c 1
 216 265 237 290 257 321 c 1
 269 295 318 216 329 193 c 1
EndSplineSet
EndChar

StartChar: OE
Encoding: 338 338 168
Width: 971
Flags: W
LayerCount: 2
Fore
SplineSet
304 -27 m 0
 146 -27 43 113 43 305 c 0
 43 509 159 676 322 676 c 0
 381 676 443 661 506 632 c 0
 569 603 627 588 679 588 c 0
 755 588 912 630 933 663 c 1
 934 657 934 651 934 644 c 0
 934 610 917 526 917 491 c 0
 917 485 917 479 918 475 c 1
 815 501 745 514 709 514 c 0
 624 514 561 480 561 431 c 0
 561 396 584 378 629 378 c 0
 648 378 670 385 695 398 c 2
 757 430 l 1
 748 415 744 396 744 375 c 0
 744 350 759 270 761 250 c 1
 735 275 704 288 668 288 c 0
 606 288 544 248 544 201 c 0
 544 152 603 128 722 128 c 0
 802 128 860 141 895 168 c 1
 895 124 897 57 900 -33 c 1
 871 18 772 43 603 43 c 0
 486 43 381 -27 304 -27 c 0
429 333 m 0
 429 376 426 411 419 440 c 1
 406 395 380 372 339 372 c 0
 298 372 249 405 249 448 c 0
 249 471 268 501 288 508 c 1
 290 468 l 1
 301 461 312 458 322 458 c 0
 353 458 380 493 380 532 c 0
 380 579 343 603 298 603 c 0
 231 603 191 509 191 387 c 0
 191 240 245 95 305 95 c 0
 382 95 429 185 429 333 c 0
EndSplineSet
EndChar

StartChar: oe
Encoding: 339 339 169
Width: 717
Flags: W
LayerCount: 2
Fore
SplineSet
680 143 m 1
 659 35 602 -19 509 -19 c 0
 459 -19 416 -5 380 24 c 1
 343 -11 300 -28 250 -28 c 0
 134 -28 47 37 47 134 c 0
 47 233 124 314 224 314 c 0
 291 314 346 292 382 251 c 1
 415 280 455 294 503 294 c 0
 562 294 614 273 658 231 c 1
 645 230 619 211 580 174 c 0
 542 137 510 118 484 116 c 1
 495 90 521 77 562 77 c 0
 598 77 637 99 680 143 c 1
335 80 m 0
 335 130 244 246 191 246 c 0
 174 246 165 231 165 201 c 0
 165 148 252 46 309 46 c 0
 326 46 335 57 335 80 c 0
524 224 m 1
 499 235 478 241 462 241 c 0
 443 241 433 231 433 211 c 0
 433 193 439 175 452 156 c 1
 498 164 516 216 524 224 c 1
EndSplineSet
EndChar

StartChar: Scaron
Encoding: 352 352 170
Width: 587
Flags: W
LayerCount: 2
Fore
SplineSet
204 485 m 0
 204 373 359 359 464 297 c 0
 517 266 528 195 528 157 c 0
 528 49 400 -29 279 -29 c 0
 206 -29 154 -6 123 39 c 0
 117 47 99 91 68 171 c 0
 49 221 18 250 -24 259 c 1
 11 279 42 289 70 289 c 0
 105 289 141 271 171 235 c 0
 197 204 283 80 341 80 c 0
 371 80 386 106 386 157 c 0
 386 196 358 229 302 254 c 0
 214 293 162 318 146 331 c 0
 89 376 60 442 60 530 c 0
 60 612 159 670 282 670 c 0
 409 670 499 609 499 513 c 0
 499 429 464 373 403 373 c 0
 345 373 294 426 294 486 c 0
 294 530 317 552 363 552 c 0
 376 552 389 549 402 544 c 1
 402 551 l 2
 402 594 376 616 324 616 c 0
 267 616 204 577 204 485 c 0
357 694 m 1
 330 707 310 713 297 713 c 0
 283 713 267 707 248 694 c 1
 238 746 200 792 134 831 c 1
 213 831 l 1
 259 814 289 792 303 763 c 1
 322 794 351 817 391 831 c 1
 470 831 l 1
 389 769 367 744 357 694 c 1
EndSplineSet
EndChar

StartChar: scaron
Encoding: 353 353 171
Width: 431
Flags: W
LayerCount: 2
Fore
SplineSet
406 251 m 0
 406 216 389 199 354 199 c 0
 314 199 266 225 266 251 c 0
 266 267 282 278 313 285 c 1
 298 294 279 299 258 299 c 0
 233 299 220 290 220 271 c 0
 220 250 235 232 264 216 c 2
 346 170 l 1
 375 148 390 120 390 87 c 0
 390 17 317 -28 224 -28 c 0
 178 -28 100 19 65 19 c 0
 53 19 6 15 -6 15 c 1
 23 41 118 148 143 171 c 1
 143 162 l 2
 143 87 157 49 186 49 c 0
 216 49 241 94 241 119 c 0
 241 143 225 165 194 177 c 2
 107 210 l 2
 75 222 60 245 60 271 c 0
 60 319 134 353 229 353 c 0
 326 353 406 314 406 251 c 0
282 387 m 1
 255 400 235 406 222 406 c 0
 208 406 192 400 173 387 c 1
 163 439 125 485 59 524 c 1
 138 524 l 1
 184 507 214 485 228 456 c 1
 247 487 276 510 316 524 c 1
 395 524 l 1
 314 462 292 437 282 387 c 1
EndSplineSet
EndChar

StartChar: Ydieresis
Encoding: 376 376 172
Width: 729
Flags: W
LayerCount: 2
Fore
SplineSet
629 554 m 1
 485 509 387 344 387 161 c 0
 387 94 400 34 425 -20 c 1
 396 -13 364 -9 327 -9 c 0
 289 -9 254 -13 222 -20 c 1
 253 69 285 161 285 258 c 0
 285 372 159 568 60 568 c 0
 35 568 18 550 9 514 c 1
 26 530 44 538 65 538 c 0
 90 538 103 525 103 500 c 0
 103 453 68 415 21 415 c 0
 -38 415 -83 465 -83 525 c 0
 -83 567 -60 594 -14 607 c 0
 -4 608 45 614 134 622 c 0
 199 627 247 643 278 666 c 1
 295 511 313 438 341 365 c 1
 377 440 426 654 432 670 c 1
 499 617 564 579 629 554 c 1
479 802 m 0
 511 802 542 780 542 749 c 0
 542 716 511 695 479 695 c 0
 443 695 413 716 413 749 c 0
 413 780 443 802 479 802 c 0
271 802 m 0
 303 802 334 780 334 749 c 0
 334 716 303 695 271 695 c 0
 236 695 206 716 206 749 c 0
 206 781 236 802 271 802 c 0
EndSplineSet
EndChar

StartChar: Zcaron
Encoding: 381 381 173
Width: 658
Flags: W
LayerCount: 2
Fore
SplineSet
630 175 m 1
 630 62 569 -29 478 -29 c 0
 442 -29 327 39 271 39 c 0
 221 39 157 22 79 -11 c 1
 79 72 110 148 175 216 c 0
 234 277 289 319 351 367 c 0
 417 418 445 476 446 527 c 1
 429 519 412 515 393 515 c 0
 352 515 218 577 201 577 c 0
 172 577 155 553 148 504 c 1
 161 536 178 552 199 552 c 0
 223 552 235 533 235 494 c 0
 235 445 213 420 168 420 c 0
 116 420 79 466 79 519 c 0
 79 617 121 666 204 666 c 0
 260 666 448 624 503 624 c 0
 549 624 587 634 616 655 c 1
 616 640 l 2
 616 567 585 499 524 437 c 1
 484 405 424 358 347 290 c 0
 289 238 256 184 258 126 c 2
 259 99 l 1
 292 129 324 144 357 144 c 0
 384 144 477 109 505 109 c 0
 546 109 587 131 630 175 c 1
423 687 m 1
 396 700 376 706 363 706 c 0
 349 706 333 700 314 687 c 1
 304 739 266 785 200 824 c 1
 279 824 l 1
 325 807 355 785 369 756 c 1
 388 787 417 810 457 824 c 1
 536 824 l 1
 455 762 433 737 423 687 c 1
EndSplineSet
EndChar

StartChar: zcaron
Encoding: 382 382 174
Width: 366
Flags: W
LayerCount: 2
Fore
SplineSet
336 285 m 1
 308 260 147 136 147 98 c 0
 147 83 152 75 162 75 c 0
 185 75 265 135 284 167 c 1
 283 160 283 152 283 144 c 0
 283 103 293 49 313 -19 c 1
 242 -9 179 -4 123 -4 c 0
 68 -4 26 -9 -5 -19 c 1
 2 6 31 50 83 113 c 0
 133 174 158 206 158 207 c 0
 158 225 153 234 142 234 c 0
 123 234 79 207 51 176 c 1
 62 215 68 245 68 268 c 0
 68 285 66 303 61 322 c 1
 67 321 198 270 254 270 c 0
 280 270 307 275 336 285 c 1
243 340 m 1
 216 353 196 359 183 359 c 0
 169 359 153 353 134 340 c 1
 124 392 86 438 20 477 c 1
 99 477 l 1
 145 460 175 438 189 409 c 1
 208 440 237 463 277 477 c 1
 356 477 l 1
 275 415 253 390 243 340 c 1
EndSplineSet
EndChar

StartChar: circumflex
Encoding: 710 710 175
Width: 419
Flags: W
LayerCount: 2
Fore
SplineSet
136 635 m 1
 163 622 183 616 196 616 c 0
 210 616 226 622 245 635 c 1
 255 583 293 537 359 498 c 1
 280 498 l 1
 234 515 204 537 190 566 c 1
 171 535 142 512 102 498 c 1
 23 498 l 1
 104 560 126 585 136 635 c 1
EndSplineSet
EndChar

StartChar: caron
Encoding: 711 711 176
Width: 419
Flags: W
LayerCount: 2
Fore
SplineSet
246 498 m 1
 219 511 199 517 186 517 c 0
 172 517 156 511 137 498 c 1
 127 550 89 596 23 635 c 1
 102 635 l 1
 148 618 178 596 192 567 c 1
 211 598 240 621 280 635 c 1
 359 635 l 1
 278 573 256 548 246 498 c 1
EndSplineSet
EndChar

StartChar: ring
Encoding: 730 730 177
Width: 334
Flags: W
LayerCount: 2
Fore
SplineSet
207 647 m 0
 268 647 321 613 321 564 c 0
 321 517 270 481 207 481 c 0
 147 481 93 517 93 564 c 0
 93 613 146 647 207 647 c 0
207 617 m 0
 167 617 134 595 134 564 c 0
 134 533 167 512 207 512 c 0
 244 512 279 535 279 564 c 0
 279 595 244 617 207 617 c 0
EndSplineSet
EndChar

StartChar: tilde
Encoding: 732 732 178
Width: 417
Flags: W
LayerCount: 2
Fore
SplineSet
160 489 m 1
 151 498 135 502 112 502 c 0
 87 502 64 498 43 489 c 1
 45 597 68 617 155 617 c 0
 175 617 274 534 282 534 c 0
 289 534 293 542 293 557 c 0
 293 570 290 590 283 617 c 1
 294 608 306 603 318 603 c 0
 329 603 343 608 362 617 c 1
 362 512 336 488 249 486 c 0
 242 486 162 556 153 556 c 0
 150 556 148 552 148 543 c 0
 148 533 152 515 160 489 c 1
EndSplineSet
EndChar

StartChar: endash
Encoding: 8211 8211 179
Width: 544
Flags: W
LayerCount: 2
Fore
SplineSet
522 265 m 1
 449 313 161 322 78 290 c 1
 87 305 92 320 93 335 c 2
 92 386 l 1
 138 311 453 350 515 386 c 1
 515 363 522 286 522 265 c 1
EndSplineSet
EndChar

StartChar: emdash
Encoding: 8212 8212 180
Width: 744
Flags: W
LayerCount: 2
Fore
SplineSet
722 265 m 1
 649 313 161 322 78 290 c 1
 87 305 92 320 93 335 c 2
 92 386 l 1
 138 311 653 350 715 386 c 1
 715 363 722 286 722 265 c 1
EndSplineSet
EndChar

StartChar: quoteleft
Encoding: 8216 8216 181
Width: 245
Flags: W
LayerCount: 2
Fore
SplineSet
119 668 m 1
 133 673 146 675 158 675 c 0
 202 675 231 640 231 596 c 0
 231 545 197 505 148 505 c 0
 75 505 38 536 38 598 c 0
 38 671 98 744 179 777 c 1
 143 740 123 704 119 668 c 1
EndSplineSet
EndChar

StartChar: quoteright
Encoding: 8217 8217 182
Width: 243
Flags: W
LayerCount: 2
Fore
SplineSet
148 555 m 1
 134 551 121 549 108 549 c 0
 64 549 38 583 38 627 c 0
 38 678 70 717 118 717 c 0
 192 717 229 687 229 626 c 0
 229 556 169 478 88 447 c 1
 124 483 144 519 148 555 c 1
EndSplineSet
EndChar

StartChar: quotesinglbase
Encoding: 8218 8218 183
Width: 217
Flags: W
LayerCount: 2
Fore
SplineSet
203 44 m 0
 203 -28 131 -88 62 -88 c 1
 123 -43 125 -40 129 -9 c 1
 117 -14 106 -16 96 -16 c 0
 57 -16 38 5 38 48 c 0
 38 96 74 136 121 136 c 0
 168 136 203 92 203 44 c 0
EndSplineSet
EndChar

StartChar: quotedblleft
Encoding: 8220 8220 184
Width: 464
Flags: W
LayerCount: 2
Fore
SplineSet
33 668 m 1
 47 673 60 675 72 675 c 0
 116 675 145 640 145 596 c 0
 145 545 111 505 62 505 c 0
 -11 505 -48 536 -48 598 c 0
 -48 671 12 744 93 777 c 1
 57 740 37 704 33 668 c 1
252 668 m 1
 266 673 279 675 291 675 c 0
 335 675 364 640 364 596 c 0
 364 545 330 505 281 505 c 0
 208 505 171 536 171 598 c 0
 171 671 231 744 312 777 c 1
 276 740 256 704 252 668 c 1
EndSplineSet
EndChar

StartChar: quotedblright
Encoding: 8221 8221 185
Width: 463
Flags: W
LayerCount: 2
Fore
SplineSet
148 555 m 1
 134 551 121 549 108 549 c 0
 64 549 38 583 38 627 c 0
 38 678 70 717 118 717 c 0
 192 717 229 687 229 626 c 0
 229 556 169 478 88 447 c 1
 124 483 144 519 148 555 c 1
368 555 m 1
 354 551 341 549 328 549 c 0
 284 549 258 583 258 627 c 0
 258 678 290 717 338 717 c 0
 412 717 449 687 449 626 c 0
 449 556 389 478 308 447 c 1
 344 483 364 519 368 555 c 1
EndSplineSet
EndChar

StartChar: quotedblbase
Encoding: 8222 8222 186
Width: 425
Flags: W
LayerCount: 2
Fore
SplineSet
203 44 m 0
 203 -28 131 -88 62 -88 c 1
 123 -43 125 -40 129 -9 c 1
 117 -14 106 -16 96 -16 c 0
 57 -16 38 5 38 48 c 0
 38 96 74 136 121 136 c 0
 168 136 203 92 203 44 c 0
411 44 m 0
 411 -28 339 -88 270 -88 c 1
 331 -43 333 -40 337 -9 c 1
 325 -14 314 -16 304 -16 c 0
 265 -16 246 5 246 48 c 0
 246 96 282 136 329 136 c 0
 376 136 411 92 411 44 c 0
EndSplineSet
EndChar

StartChar: bullet
Encoding: 8226 8226 187
Width: 585
Flags: W
LayerCount: 2
Fore
SplineSet
225 486 m 1
 293 660 l 1
 368 489 l 1
 557 476 l 1
 416 352 l 1
 463 170 l 1
 300 265 l 1
 142 165 l 1
 182 348 l 1
 38 468 l 1
 225 486 l 1
EndSplineSet
EndChar

StartChar: ellipsis
Encoding: 8230 8230 188
Width: 1396
Flags: W
LayerCount: 2
Fore
SplineSet
258 -28 m 0
 258 -68 232 -88 181 -88 c 0
 129 -88 82 -51 82 0 c 0
 82 40 107 60 157 60 c 0
 224 60 258 31 258 -28 c 0
809 -28 m 0
 809 -68 783 -88 732 -88 c 0
 680 -88 633 -51 633 0 c 0
 633 40 658 60 708 60 c 0
 775 60 809 31 809 -28 c 0
1359 -28 m 0
 1359 -68 1333 -88 1282 -88 c 0
 1230 -88 1183 -51 1183 0 c 0
 1183 40 1208 60 1258 60 c 0
 1325 60 1359 31 1359 -28 c 0
EndSplineSet
EndChar

StartChar: guilsinglleft
Encoding: 8249 8249 189
Width: 280
Flags: W
LayerCount: 2
Fore
SplineSet
240 358 m 1
 116 300 l 1
 240 241 l 1
 240 168 l 1
 50 263 l 1
 50 334 l 1
 240 434 l 1
 240 358 l 1
EndSplineSet
EndChar

StartChar: guilsinglright
Encoding: 8250 8250 190
Width: 280
Flags: W
LayerCount: 2
Fore
SplineSet
50 244 m 1
 175 303 l 1
 50 361 l 1
 50 434 l 1
 240 339 l 1
 240 268 l 1
 50 168 l 1
 50 244 l 1
EndSplineSet
EndChar

StartChar: trademark
Encoding: 8482 8482 191
Width: 685
Flags: W
LayerCount: 2
Fore
SplineSet
295 523 m 1
 211 523 l 1
 211 250 l 1
 139 250 l 1
 139 523 l 1
 53 523 l 1
 53 588 l 1
 295 588 l 1
 295 523 l 1
547 251 m 1
 547 437 l 1
 474 249 l 1
 393 445 l 1
 393 251 l 1
 326 251 l 1
 326 590 l 1
 407 590 l 1
 473 415 l 1
 536 590 l 1
 616 590 l 1
 616 251 l 1
 547 251 l 1
EndSplineSet
EndChar

StartChar: Nacute
Encoding: 323 323 194
Width: 759
Flags: HW
LayerCount: 2
Fore
SplineSet
357 911 m 5
 491 911 l 5
 447 821 433 807 364 752 c 5
 295 752 l 5
 338 791 360 832 360 875 c 4
 360 884 359 896 357 911 c 5
738 6 m 1
 713 -3 484 -25 453 -33 c 1
 453 -23 l 2
 453 51 441 137 416 235 c 0
 382 368 344 434 299 434 c 1
 290 432 l 1
 269 358 258 299 258 254 c 0
 258 169 276 129 380 -18 c 1
 325 -9 273 -4 224 -4 c 0
 171 -4 114 -9 53 -20 c 1
 152 147 202 309 202 464 c 0
 202 512 167 571 114 571 c 0
 85 571 66 552 58 514 c 1
 74 526 92 532 111 532 c 0
 136 532 149 520 149 497 c 0
 149 452 117 411 72 411 c 0
 14 411 -35 468 -35 525 c 0
 -35 568 -12 596 33 607 c 0
 40 610 90 613 181 621 c 0
 246 626 293 642 323 666 c 1
 323 652 l 2
 323 648 322 643 322 639 c 0
 322 593 337 542 367 486 c 1
 402 431 515 257 531 162 c 1
 540 193 544 226 544 261 c 0
 544 374 496 504 400 651 c 1
 708 651 l 1
 694 648 676 615 654 552 c 0
 614 436 608 386 608 312 c 0
 608 181 651 79 738 6 c 1
EndSplineSet
EndChar

StartChar: nacute
Encoding: 324 324 195
Width: 445
Flags: HW
LayerCount: 2
Fore
SplineSet
208 550 m 1
 342 550 l 1
 298 460 284 446 215 391 c 1
 146 391 l 1
 189 430 211 471 211 514 c 0
 211 523 210 535 208 550 c 1
208 550 m 1
 342 550 l 1
 298 460 284 446 215 391 c 1
 146 391 l 1
 189 430 211 471 211 514 c 0
 211 523 210 535 208 550 c 1
416 -14 m 1
 408 -17 397 -19 383 -19 c 0
 330 -19 294 1 277 40 c 0
 272 51 265 87 255 150 c 0
 248 190 233 210 209 210 c 0
 184 210 171 188 171 144 c 0
 171 78 206 8 250 -14 c 1
 225 -18 194 -20 158 -20 c 2
 107 -20 l 2
 89 -20 76 -19 65 -19 c 2
 58 -19 l 1
 79 10 89 49 89 100 c 0
 89 167 69 212 28 234 c 1
 49 241 72 255 97 277 c 2
 160 332 l 1
 164 312 166 283 166 246 c 1
 195 303 231 332 275 332 c 0
 335 332 376 275 376 200 c 0
 376 175 357 92 357 67 c 0
 357 32 377 5 416 -14 c 1
EndSplineSet
EndChar
